<?xml version="1.0" encoding="UTF-8" standalone="no"?>
<!-- Created with Inkscape (http://www.inkscape.org/) -->

<svg
   version="1.1"
   id="svg880"
   width="882.66669"
   height="1297.3333"
   viewBox="0 0 882.66669 1297.3333"
   xmlns:xlink="http://www.w3.org/1999/xlink"
   xmlns="http://www.w3.org/2000/svg"
   xmlns:svg="http://www.w3.org/2000/svg">
  <defs
     id="defs884">
    <linearGradient
       id="linearGradient1656">
      <stop
         style="stop-color:#c2d2e5;stop-opacity:1;"
         offset="0"
         id="stop1652" />
      <stop
         style="stop-color:#c5d2e5;stop-opacity:0;"
         offset="1"
         id="stop1654" />
    </linearGradient>
    <linearGradient
       id="linearGradient76141">
      <stop
         style="stop-color:#cdd7e4;stop-opacity:1;"
         offset="0"
         id="stop76137" />
      <stop
         style="stop-color:#cdd7e4;stop-opacity:0;"
         offset="1"
         id="stop76139" />
    </linearGradient>
    <linearGradient
       id="linearGradient72938">
      <stop
         style="stop-color:#cdd7e4;stop-opacity:1;"
         offset="0"
         id="stop72934" />
      <stop
         style="stop-color:#cdd7e4;stop-opacity:0;"
         offset="1"
         id="stop72936" />
    </linearGradient>
    <linearGradient
       id="linearGradient64425">
      <stop
         style="stop-color:#cdd7e4;stop-opacity:1"
         offset="0"
         id="stop64421" />
      <stop
         style="stop-color:#e4e4e4;stop-opacity:1"
         offset="1"
         id="stop64423" />
    </linearGradient>
    <linearGradient
       id="linearGradient62704">
      <stop
         style="stop-color:#cdd7e4;stop-opacity:1"
         offset="0"
         id="stop62700" />
      <stop
         style="stop-color:#e4e4e4;stop-opacity:1"
         offset="1"
         id="stop62702" />
    </linearGradient>
    <linearGradient
       id="linearGradient60399">
      <stop
         style="stop-color:#678980;stop-opacity:1"
         offset="0"
         id="stop60395" />
      <stop
         style="stop-color:#5d7c60;stop-opacity:1"
         offset="1"
         id="stop60397" />
    </linearGradient>
    <linearGradient
       id="linearGradient57725">
      <stop
         style="stop-color:#facb68;stop-opacity:1"
         offset="0"
         id="stop57721" />
      <stop
         style="stop-color:#faa268;stop-opacity:1"
         offset="1"
         id="stop57723" />
    </linearGradient>
    <linearGradient
       id="linearGradient25093">
      <stop
         style="stop-color:#294975;stop-opacity:1;"
         offset="0"
         id="stop25089" />
      <stop
         style="stop-color:#1f5849;stop-opacity:1;"
         offset="0.66004032"
         id="stop52143" />
      <stop
         style="stop-color:#5d7c60;stop-opacity:1"
         offset="1"
         id="stop25091" />
    </linearGradient>
    <linearGradient
       id="linearGradient23177">
      <stop
         style="stop-color:#fac34c;stop-opacity:1;"
         offset="0"
         id="stop23173" />
      <stop
         style="stop-color:#fac34c;stop-opacity:0;"
         offset="1"
         id="stop23175" />
    </linearGradient>
    <linearGradient
       id="linearGradient17203">
      <stop
         style="stop-color:#294975;stop-opacity:1;"
         offset="0"
         id="stop17199" />
      <stop
         style="stop-color:#000000;stop-opacity:1"
         offset="1"
         id="stop17201" />
    </linearGradient>
    <radialGradient
       xlink:href="#linearGradient17203"
       id="radialGradient17205"
       cx="425.17694"
       cy="441.22137"
       fx="425.17694"
       fy="441.22137"
       r="28.27039"
       gradientTransform="matrix(1.169637,0.00946809,-0.01412888,1.7453942,-66.282914,-326.46927)"
       gradientUnits="userSpaceOnUse" />
    <linearGradient
       xlink:href="#linearGradient23177"
       id="linearGradient23179"
       x1="436.58109"
       y1="418.14108"
       x2="475.67453"
       y2="503.34769"
       gradientUnits="userSpaceOnUse" />
    <linearGradient
       xlink:href="#linearGradient25093"
       id="linearGradient25095"
       x1="446.46179"
       y1="425.53845"
       x2="432.23795"
       y2="541.21356"
       gradientUnits="userSpaceOnUse" />
    <linearGradient
       xlink:href="#linearGradient57725"
       id="linearGradient57727"
       x1="570.55151"
       y1="442.81213"
       x2="554.42938"
       y2="473.75287"
       gradientUnits="userSpaceOnUse" />
    <linearGradient
       xlink:href="#linearGradient60399"
       id="linearGradient60401"
       x1="531.34082"
       y1="419.57614"
       x2="466.80991"
       y2="553.40973"
       gradientUnits="userSpaceOnUse" />
    <linearGradient
       xlink:href="#linearGradient62704"
       id="linearGradient62706"
       x1="307.74564"
       y1="930.47913"
       x2="355.99118"
       y2="1169.6117"
       gradientUnits="userSpaceOnUse" />
    <linearGradient
       xlink:href="#linearGradient64425"
       id="linearGradient64427"
       x1="580.86322"
       y1="569.83398"
       x2="763.55542"
       y2="295.7774"
       gradientUnits="userSpaceOnUse" />
    <linearGradient
       xlink:href="#linearGradient72938"
       id="linearGradient72940"
       x1="297.50687"
       y1="704.60492"
       x2="333.79498"
       y2="813.3457"
       gradientUnits="userSpaceOnUse" />
    <linearGradient
       xlink:href="#linearGradient76141"
       id="linearGradient76143"
       x1="608.15179"
       y1="765.63501"
       x2="521.11621"
       y2="754.92566"
       gradientUnits="userSpaceOnUse" />
    <linearGradient
       xlink:href="#linearGradient1656"
       id="linearGradient1658"
       x1="322.01849"
       y1="1010.6718"
       x2="341.77951"
       y2="927.24072"
       gradientUnits="userSpaceOnUse" />
  </defs>
  <path
     style="display:inline;fill:url(#linearGradient62706);fill-opacity:1;stroke:none;stroke-width:1px;stroke-linecap:butt;stroke-linejoin:miter;stroke-opacity:1"
     d="m 143.15464,1198.7865 24.76598,56.2274 218.46479,-51.7895 -0.54477,-24.6643 27.26663,19.5392 49.97059,-27.3002 -24.50427,-45.3085 -32.36307,-167.16965 6.3449,-47.38059 -144.52528,-39.05267 z"
     id="path11062" />
  <path
     style="display:inline;fill:#efa196;fill-opacity:1;stroke:none;stroke-width:1px;stroke-linecap:butt;stroke-linejoin:miter;stroke-opacity:1"
     d="m 422.53648,924.61767 185.73025,-105.53924 -3.19073,25.41128 72.98811,-5.77727 69.24785,14.83374 39.19108,34.70908 2.20229,13.81929 -10.81056,2.05526 -35.37808,-5.59718 -7.53898,1.91242 -16.29117,-8.27947 -25.84656,-26.73091 -22.76981,-1.39423 -4.39693,17.76071 7.21208,46.76401 -17.40271,3.48969 -4.9322,-13.44799 -17.70386,-52.41505 -13.84238,-4.39503 -57.12671,4.30792 -67.91443,32.1942 -6.74734,33.32105 22.00661,25.81956 54.16356,29.98343 25.88992,34.69526 -4.2755,14.4267 -13.20359,-4.8824 -25.83229,-30.6512 -24.52079,-13.37772 34.21888,82.42272 -7.49767,7.9965 -18.1494,-8.1833 -12.7145,-25.5923 -17.98003,1.8524 2.55512,23.4696 -14.52322,-1.041 -8.48815,-16.0712 1.73056,-56.09545 -17.03394,-47.56824 z"
     id="path49595" />
  <ellipse
     style="display:inline;opacity:1;fill:#f7b8d5;fill-opacity:1;stroke:none;stroke-width:5.78257;stroke-linecap:round;stroke-linejoin:round;stroke-dasharray:none;stroke-dashoffset:377.953;stroke-opacity:1;paint-order:markers fill stroke"
     id="ellipse9739"
     cx="1160.1545"
     cy="68.382751"
     rx="15.058414"
     ry="10.208563"
     transform="matrix(0.67962257,0.73356197,-0.87345078,0.48691244,0,0)" />
  <ellipse
     style="display:inline;opacity:1;fill:#f7b8d5;fill-opacity:1;stroke:none;stroke-width:5.85195;stroke-linecap:round;stroke-linejoin:round;stroke-dasharray:none;stroke-dashoffset:377.953;stroke-opacity:1;paint-order:markers fill stroke"
     id="ellipse9743"
     cx="1167.5145"
     cy="329.02701"
     rx="17.694304"
     ry="11.945979"
     transform="matrix(0.82534435,0.5646297,-0.79653124,0.60459738,0,0)" />
  <ellipse
     style="display:inline;opacity:1;fill:#f7b8d5;fill-opacity:1;stroke:none;stroke-width:5.85195;stroke-linecap:round;stroke-linejoin:round;stroke-dasharray:none;stroke-dashoffset:377.953;stroke-opacity:1;paint-order:markers fill stroke"
     id="ellipse9745"
     cx="1161.8752"
     cy="134.62999"
     rx="17.694304"
     ry="11.945979"
     transform="matrix(0.73045915,0.68295639,-0.87880582,0.47717955,0,0)" />
  <path
     style="display:inline;fill:#7d3d35;fill-opacity:1;stroke:#7d3d35;stroke-width:9.4;stroke-linecap:round;stroke-linejoin:miter;stroke-dasharray:none;stroke-opacity:1"
     d="m 692.3694,842.47857 c 0,0 17.98007,8.33381 28.59296,16.04352 9.67365,7.0274 17.90256,17.54876 17.90256,17.54876"
     id="path10015" />
  <ellipse
     style="display:inline;opacity:1;fill:#f7b8d5;fill-opacity:1;stroke:none;stroke-width:5.75119;stroke-linecap:round;stroke-linejoin:round;stroke-dasharray:none;stroke-dashoffset:377.953;stroke-opacity:1;paint-order:markers fill stroke"
     id="ellipse8630"
     cx="73.997665"
     cy="1039.2609"
     rx="21.261951"
     ry="17.477022"
     transform="matrix(0.83175039,-0.55514979,0.38942847,0.92105671,0,0)" />
  <ellipse
     style="display:inline;opacity:1;fill:#f7b8d5;fill-opacity:1;stroke:none;stroke-width:5.7;stroke-linecap:round;stroke-linejoin:round;stroke-dasharray:none;stroke-dashoffset:377.953;stroke-opacity:1;paint-order:markers fill stroke"
     id="path8726"
     cx="937.22571"
     cy="417.08667"
     rx="16.277458"
     ry="22.266113"
     transform="rotate(31.173183)" />
  <path
     style="display:inline;fill:#e4e4e4;fill-opacity:1;stroke:none;stroke-width:1px;stroke-linecap:butt;stroke-linejoin:miter;stroke-opacity:1"
     d="m 132.29154,1268.2449 -54.641874,-60.9585 124.574964,-257.78419 41.41604,-58.59209 25.28304,-104.35533 53.21908,-132.1171 60.90005,-132.78312 17.44314,81.96511 73.29966,65.78401 76.10751,17.70126 60.37628,-22.61602 9.30832,119.81212 -16.18154,53.99784 -26.89787,27.40317 -80.34843,29.29281 c 0,0 -6.95841,8.36616 -10.82758,12.91646 -9.50453,11.17767 -20.49775,22.43111 -35.03343,24.42869 -14.24691,1.9579 -38.46825,-10.36827 -38.46825,-10.36827 l -34.49903,1.48663 c -34.97491,-18.99541 -56.4357,-32.86985 -90.79973,-22.11132 -22.87484,7.16156 -43.62535,40.5141 -43.62535,40.5141 l -26.74676,55.91025 -73.06106,255.02219 z"
     id="path6476" />
  <path
     style="display:inline;fill:url(#linearGradient60401);fill-opacity:1;stroke:none;stroke-width:1px;stroke-linecap:butt;stroke-linejoin:miter;stroke-opacity:1"
     d="m 401.93819,488.20189 -12.70182,13.32815 -4.18467,53.13564 12.55008,43.05895 52.25594,55.16117 60.64708,31.52996 64.14201,1.6704 36.0703,-21.08038 -38.35621,-187.50783 -33.45302,-81.04397 -35.94378,-18.13119 -57.24731,15.71709 -31.17802,32.49875 -11.21465,28.04213 z"
     id="path2707" />
  <path
     style="display:inline;fill:url(#linearGradient76143);fill-opacity:1;stroke:none;stroke-width:1px;stroke-linecap:butt;stroke-linejoin:miter;stroke-opacity:1"
     d="m 536.56945,687.98531 c 14.46579,46.24457 19.13374,154.94889 -43.09602,204.01158 l 87.96028,-31.27418 25.21432,-26.45747 11.4088,-166.84567 -43.10746,16.81103 z"
     id="path73111" />
  <path
     style="display:inline;fill:#294974;fill-opacity:1;stroke:none;stroke-width:1px;stroke-linecap:butt;stroke-linejoin:miter;stroke-opacity:1"
     d="m 387.82404,528.2651 c -1.97479,5.01073 -5.34546,9.62986 -6.09699,14.963 -1.7452,12.38453 0.7916,25.21924 4.00475,37.30634 2.69773,10.14822 7.024,19.9813 12.63521,28.85702 8.85878,14.01268 20.26163,26.48727 32.59944,37.56028 12.19859,10.94806 25.73574,20.70577 40.39286,28.04295 12.34206,6.17829 25.88482,9.77806 39.28635,13.07911 10.66768,2.62765 21.55243,4.85893 32.52992,5.30461 9.92351,0.40289 19.9993,-0.25974 29.69859,-2.39566 4.79172,-1.05521 9.51914,-2.71283 13.8119,-5.08902 7.01153,-3.88112 16.41481,-7.12591 19.02123,-14.70426 1.06727,-3.10316 0.65628,-8.44398 -2.43749,-9.53818 -6.28504,-2.22288 -10.13308,8.8516 -16.03324,11.955 -6.06902,3.19221 -12.68657,5.667 -19.47707,6.62211 -12.79347,1.79945 -25.95705,0.17844 -38.71306,-1.86975 -14.00097,-2.24809 -28.08628,-5.49076 -40.99793,-11.3534 -15.53457,-7.0536 -28.98159,-18.06986 -42.74817,-28.14743 -5.44905,-3.98888 -11.05147,-7.89626 -15.7336,-12.76257 -9.19382,-9.55548 -17.10267,-20.42303 -23.8505,-31.83795 -4.5537,-7.70323 -7.99269,-16.0546 -11.06461,-24.45932 -1.5626,-4.27525 -3.15957,-8.62167 -3.72141,-13.13873 -0.57631,-4.63344 0.66627,-9.34022 0.39941,-14.00173 -0.32965,-5.75835 3.26853,-16.49088 -2.46406,-17.12699 -0.96945,-0.10757 -0.68389,1.8271 -1.04153,2.73457 z"
     id="path6586" />
  <ellipse
     style="display:inline;fill:#faa268;fill-opacity:1;stroke-width:7.55906;stroke-linecap:round;stroke-linejoin:round;stroke-dashoffset:377.953;paint-order:markers fill stroke"
     id="path947"
     cx="445.79184"
     cy="469.18719"
     rx="43.793308"
     ry="54.906448" />
  <path
     style="display:inline;fill:url(#linearGradient1658);fill-opacity:1;stroke:none;stroke-width:1px;stroke-linecap:butt;stroke-linejoin:miter;stroke-opacity:1"
     d="m 308.42605,898.96165 c 0,0 -74.38655,50.92141 -53.91454,73.39208 9.36592,10.2803 22.85458,-13.75948 22.85458,-13.75948 0,0 -11.93371,30.79618 5.3924,36.95384 12.49924,4.44221 23.97367,-28.06812 23.97367,-28.06812 0,0 -8.23479,33.41773 10.65846,38.26023 19.14229,4.9063 23.77615,-33.04164 23.77615,-33.04164 0,0 -0.56127,31.82734 16.73548,30.56044 16.88891,-1.2371 14.78085,-31.38499 14.78085,-31.38499 0,0 4.94523,27.67957 22.03899,20.63919 13.7715,-5.67204 9.60173,-69.90689 9.60173,-69.90689 z"
     id="path1021" />
  <path
     style="display:inline;fill:#294974;fill-opacity:1;stroke:none;stroke-width:1px;stroke-linecap:butt;stroke-linejoin:miter;stroke-opacity:1"
     d="m 407.28215,923.41933 c 2.76069,-1.36188 7.42317,0.0174 8.81136,2.76497 0.98355,1.94667 -1.85893,4.02329 -2.12679,6.18781 -0.8952,7.23381 0.99428,14.55007 1.85222,21.7884 3.5205,29.7019 8.2482,59.26319 13.51095,88.70639 3.43133,19.197 6.76038,38.461 11.772,57.3073 6.72151,25.2764 31.52622,49.3636 24.47443,74.5499 -0.7431,2.6541 -4.00803,3.8191 -6.28334,5.3745 -14.85114,10.1519 -29.58824,25.2398 -47.57607,25.4771 -3.64593,0.048 -6.79412,-2.8093 -9.77602,-4.9077 -5.37716,-3.784 -14.2817,-13.6061 -14.2817,-13.6061 0,0 3.66963,13.089 0.56524,18.3707 -0.86149,1.4657 -2.94677,1.7245 -4.5304,2.343 -15.67184,6.1209 -32.43522,8.9589 -48.68035,13.337 -51.15215,13.7858 -100.79991,36.7343 -153.62711,40.7188 -6.39663,0.4825 -19.13117,-2.0844 -19.13117,-2.0844 0,0 -8.25285,-18.4457 -8.9597,-28.3223 -0.4307,-6.018 -2.74321,-15.8505 2.94613,-17.8589 4.84942,-1.7119 9.24888,5.654 11.51109,10.2724 2.69443,5.5008 -3.74237,14.8008 1.26227,18.3324 8.90523,6.2842 20.65554,-7.601 31.48687,-8.8161 4.86527,-0.5458 9.84474,1.5598 14.66932,0.7278 4.787,-0.8255 8.7242,-4.5307 13.47257,-5.5553 9.66116,-2.0846 19.89244,0.6663 29.63345,-1.006 26.6652,-4.5777 50.75886,-19.7033 77.39297,-24.4586 14.46687,-2.5829 33.89473,8.5513 44.0377,-2.0827 2.57294,-2.6975 -0.59107,-7.5028 0,-11.1834 0.37134,-2.3124 1.43691,-4.4585 2.19987,-6.6728 1.30813,-3.7965 0.95456,-8.8103 4.07629,-11.336 2.52229,-2.0407 6.62161,-2.4863 9.64497,-1.3091 5.29111,2.0602 6.38193,9.6443 10.8857,13.1021 3.35194,2.5735 7.28778,5.3849 11.513,5.3081 11.98029,-0.2178 28.12712,-4.9141 32.07576,-16.2271 3.90467,-11.187 -10.81594,-21.1556 -14.84442,-32.2986 -8.05421,-22.2784 -13.36605,-45.4932 -18.47658,-68.625 -4.62442,-20.9315 -8.10868,-42.1207 -10.9986,-63.3613 -2.39609,-17.611 -5.42304,-35.2885 -5.24771,-53.06088 0.0659,-6.68095 0.8151,-13.40489 2.36584,-19.90371 0.98779,-4.1396 0.56328,-10.10987 4.37996,-11.99268 z"
     id="path5409" />
  <path
     style="display:inline;fill:url(#linearGradient72940);fill-opacity:1;stroke:none;stroke-width:1px;stroke-linecap:butt;stroke-linejoin:miter;stroke-opacity:1"
     d="m 352.08121,697.00614 c -11.35587,64.18187 -44.81632,140.6055 -108.57627,199.36483 l 30.39186,-125.04116 27.12302,-56.55986 z"
     id="path69933" />
  <path
     style="display:inline;fill:#294974;fill-opacity:1;stroke:none;stroke-width:1px;stroke-linecap:butt;stroke-linejoin:miter;stroke-opacity:1"
     d="m 259.86147,922.52566 c -2.43651,8.76213 -10.81059,14.7473 -14.80394,22.91826 -10.28484,21.04423 -16.16521,43.98901 -23.14571,66.34768 -8.45691,27.0877 -14.37152,54.9209 -22.67263,82.0567 -14.50048,47.4011 -33.13853,93.4795 -47.36566,140.9634 -4.76716,15.9107 -12.71628,48.1786 -12.71628,48.1786 0,0 -5.3761,5.2293 -8.31257,4.215 -2.53441,-0.8754 -3.09023,-4.6269 -3.39969,-7.2903 -0.26488,-2.2798 1.40169,-6.7411 1.40169,-6.7411 0,0 -11.19948,-0.7649 -15.91866,-3.4496 -9.69353,-5.5145 -16.567819,-15.237 -22.799277,-24.486 -5.470659,-8.1198 -9.443167,-17.2921 -12.40528,-26.624 -1.659504,-5.2281 -3.576985,-10.7473 -2.924732,-16.1936 2.397886,-20.0222 16.784982,-36.6815 24.505953,-55.3102 5.764746,-13.9088 10.088686,-28.4083 16.281376,-42.1319 20.87734,-46.2662 45.03998,-91.0441 70.18453,-135.13695 13.66273,-23.95863 32.31142,-45.12774 43.77725,-70.21202 10.9369,-23.92712 15.67321,-50.22841 23.32021,-75.40074 5.53539,-18.22135 10.86836,-36.50358 16.33123,-54.7468 1.32707,-4.43174 3.99515,-13.29104 3.99515,-13.29104 l 6.57017,-4.13021 11.04896,-22.41779 12.02634,-25.86159 6.38006,4.60349 -15.35972,30.84103 -8.07284,23.67934 c 0,0 -10.0899,21.93537 -13.47425,33.47911 -3.8886,13.26369 -4.82468,27.22607 -7.73908,40.73729 -1.69508,7.85844 -3.44662,15.71577 -5.66615,23.44248 -2.37804,8.27853 -5.03278,16.49354 -8.18452,24.5095 -3.10728,7.9029 -6.77223,15.58302 -10.5491,23.18869 -12.50932,25.19065 -26.93376,49.38588 -40.07309,74.25373 -17.16846,32.49348 -34.56075,64.88658 -50.64542,97.92998 -7.95918,16.3509 -22.68013,49.6176 -22.68013,49.6176 0,0 -15.37239,34.6919 -22.8315,52.1361 -3.12676,7.3124 -7.636658,14.2181 -9.189184,22.0179 -0.895057,4.4967 -1.229647,9.3472 0.03325,13.7548 0.780698,2.7247 3.351009,4.6263 4.485541,7.2236 0.577539,1.3222 0.445153,2.9129 1.146053,4.174 1.27786,2.2993 2.99792,4.6335 5.35926,5.7927 2.41341,1.1848 5.77422,-0.744 8.03408,0.7125 6.01398,3.8759 11.30196,16.4234 11.30196,16.4234 l 7.69113,2.6391 c 0,0 2.61582,-6.4323 3.22211,-9.8253 0.70701,-3.9566 -0.42734,-8.1258 0.44315,-12.0497 2.16385,-9.7539 8.32506,-18.1937 11.66816,-27.6088 2.00122,-5.636 3.86074,-11.3601 5.00195,-17.231 0.34565,-1.7782 0.17294,-3.6347 0.55041,-5.4064 7.94242,-37.2781 25.02141,-72.0368 35.7933,-108.5978 9.0747,-30.8005 18.95913,-58.6409 28.28235,-88.09812 2.90449,-9.17691 6.41648,-21.30597 11.41997,-29.52893 3.77612,-6.20584 6.78007,-12.9009 11.00414,-18.81095 4.248,-5.94353 8.31005,-12.43535 14.31551,-16.59533 1.53358,-1.06231 3.70594,-2.97622 5.25242,-1.93277 0.90482,0.6105 0.39417,2.22135 0.10175,3.27296 z"
     id="path5939" />
  <path
     style="display:inline;fill:#e4e4e4;fill-opacity:1;stroke:none;stroke-width:1px;stroke-linecap:butt;stroke-linejoin:miter;stroke-opacity:1"
     d="m 354.09705,691.99284 -9.33174,31.48413 -30.6576,5.76086 -7.59224,-25.52069 -39.29852,29.88438 -35.41109,-3.76021 4.76487,-21.78576 -29.86894,10.67627 L 132.91206,666.54966 58.220071,562.73947 29.764857,429.33945 48.131381,291.14041 109.17574,176.40149 l 17.61694,-12.93461 -3.33212,-19.01631 40.21766,-37.8199 9.47267,31.53073 5.49953,-46.221872 21.83313,-23.177517 22.05762,14.436243 3.34518,40.548656 12.58253,-57.751079 38.07394,-24.900842 10.72598,4.640129 -0.70547,40.609236 35.09558,-62.801187 20.79247,-4.792899 8.10333,33.066011 -6.89768,28.556291 -29.65061,44.03469 -46.34953,153.804 -1.36057,77.86912 24.13625,112.35707 38.66077,56.85829 45.82575,27.22438 z"
     id="path54262" />
  <path
     style="fill:#294974;fill-opacity:1;stroke:none;stroke-width:1px;stroke-linecap:butt;stroke-linejoin:miter;stroke-opacity:1"
     d="m 406.52896,493.56536 c -1.18467,1.96728 -5.0463,-0.34104 -6.79259,1.1503 -9.77844,8.35086 -7.91344,24.47637 -12.31507,36.55861 -2.79121,7.66171 -2.32956,17.98938 -8.93288,22.7736 -2.56016,1.85488 -6.3364,0.96617 -9.46907,0.54025 -6.77252,-0.92079 -13.40239,-3.34328 -19.41627,-6.59107 -10.03946,-5.42179 -18.52717,-13.40227 -26.97639,-21.07021 -8.39838,-7.6218 -17.27375,-15.14332 -23.43877,-24.66262 -5.67418,-8.76139 -8.55523,-19.07857 -11.88993,-28.96988 -5.07064,-15.04042 -8.71586,-30.53891 -12.28151,-46.00539 -3.51386,-15.24182 -6.56288,-30.60435 -8.96762,-46.06002 -2.59489,-16.67778 -5.21882,-33.42715 -5.88144,-50.29258 -0.61045,-15.53761 -0.11562,-31.18006 1.76657,-46.61532 1.90049,-15.58539 6.01963,-30.82616 9.57951,-46.1181 5.37819,-23.10274 11.06351,-46.15501 17.7874,-68.90255 4.79014,-16.20549 9.14912,-32.66297 16.05161,-48.08759 4.25823,-9.51562 9.23215,-18.8376 15.52284,-27.150641 4.96501,-6.561178 17.29317,-17.613911 17.29317,-17.613911 l 6.88605,-16.589728 c 0,0 1.12498,-16.340821 -0.27013,-24.330654 -0.73603,-4.215257 -4.21599,-12.12504 -4.21599,-12.12504 l -11.88852,1.756554 c 0,0 -5.9387,5.499773 -8.15197,8.842333 -4.04226,6.104762 -5.60808,13.552381 -9.0555,20.011737 -3.09991,5.808243 -6.97475,11.168579 -10.41713,16.780635 -2.78607,4.542078 -6.77803,8.559888 -8.28512,13.670789 -0.57759,1.958727 1.02974,4.475295 -0.17549,6.123819 -1.85466,2.53681 -6.01554,4.368555 -8.89759,3.11598 -3.20732,-1.393943 -3.50831,-6.181296 -4.22015,-9.605223 -2.62315,-12.617197 0.15482,-38.66067 0.15482,-38.66067 0,0 -25.91669,11.247732 -33.26707,22.418245 -4.42274,6.721319 -2.86286,15.836432 -4.46776,23.720658 -1.38743,6.815861 -2.22072,13.799547 -4.46132,20.384427 -2.06128,6.05787 -2.36591,14.70311 -8.18521,17.36441 -2.21367,1.01236 -5.13597,-0.44 -7.03317,-1.96507 -2.25793,-14.50451 -0.82674,-30.606801 -6.21993,-40.114876 -3.20527,-5.129217 -9.91443,-9.837846 -15.87194,-8.793473 -5.60423,0.982442 -6.66837,9.452411 -11.22665,12.857504 -2.18499,1.632215 -5.81557,1.218723 -7.43658,3.412042 -6.75629,9.141673 -1.7869,22.764933 -4.49852,33.804173 -1.0124,4.12154 -0.38868,10.46337 -4.35907,11.96274 -2.22324,0.83958 -4.95012,-1.42976 -6.25943,-3.41304 -4.66143,-7.06088 -5.66397,-23.31951 -5.66397,-23.31951 0,0 -28.16076,19.26452 -33.9835,35.52863 -1.96199,5.48025 3.19223,9.08692 1.39517,14.62345 -0.97094,2.99135 -4.72355,4.21945 -6.59557,6.74659 -6.09757,8.23145 -9.98749,17.89082 -14.76181,26.9541 -10.043068,19.06517 -20.804545,37.82968 -29.198115,57.67639 -8.636606,20.42137 -15.674635,41.54332 -21.654488,62.89431 -4.322877,15.43478 -8.5691,31.04194 -10.238698,46.98346 -2.954908,28.21382 -1.366125,56.79618 0.498905,85.10294 1.450708,22.01834 2.601423,44.35837 8.300552,65.67577 4.510883,16.87281 12.290889,32.77818 20.247234,48.32605 10.128453,19.79249 21.37696,39.18123 34.81941,56.8908 11.57918,15.25483 25.07335,29.0636 39.13463,42.0662 11.09923,10.26355 23.16491,19.48628 35.51643,28.20254 8.63961,6.09683 16.46322,15.16991 26.91176,16.79538 8.40826,1.30807 16.5085,-8.45825 24.73912,-6.29799 2.59655,0.68151 4.92793,3.03263 5.82281,5.56358 1.88231,5.32364 -2.16992,16.80029 -2.16992,16.80029 0,0 25.93652,2.61559 37.44798,-2.27071 10.69785,-4.54094 14.65459,-19.93235 25.69302,-23.56789 2.3266,-0.76627 5.34305,-0.68621 7.30742,0.77718 7.08314,5.27671 2.15844,20.84947 10.22607,24.44501 5.85592,2.60984 13.58282,-1.85136 18.15744,-6.34312 8.54764,-8.39282 6.07758,-18.69072 12.74028,-28.61772 1.48677,-2.21521 6.12843,-5.89798 7.60858,-3.67835 -6.29867,10.35308 -5.70219,20.50242 -10.75617,33.55239 -1.24473,3.21402 -3.94991,8.31548 -7.29839,9.13211 -5.37996,1.31207 -16.56543,1.25553 -16.56543,1.25553 0,0 -2.41079,4.19288 -4.52414,4.63845 -3.63491,0.76636 -7.95385,-1.31024 -10.33996,-4.1574 -4.38079,-5.22725 -4.19608,-20.02578 -4.19608,-20.02578 0,0 -16.61539,10.1657 -22.67815,17.55752 -1.66259,2.02705 -1.54146,5.30366 -3.50496,7.04084 -3.98795,3.5283 -9.78464,4.60811 -15.06113,5.32316 -7.85651,1.06469 -16.10309,0.50714 -23.72615,-1.67168 -4.33779,-1.23982 -11.96445,-6.32727 -11.96445,-6.32727 l 3.81608,-18.58276 c 0,0 -14.23724,10.56338 -22.44502,10.18808 -21.17797,-0.96837 -37.52648,-19.86498 -55.27271,-31.46306 -13.73133,-8.97414 -27.82362,-17.84161 -39.465,-29.39855 C 102.60266,650.12139 93.4295,635.507 83.907676,621.42883 72.663586,604.80426 62.007754,587.70541 52.85699,569.84289 46.718505,557.86041 40.807147,545.61729 36.941524,532.72087 c -3.712432,-12.38535 -5.137168,-25.36406 -6.845748,-38.18045 -2.95181,-22.14209 -4.836304,-44.44246 -5.866041,-66.75669 -0.843536,-18.27928 -1.670391,-36.65199 -0.25153,-54.89563 1.501819,-19.31031 4.733959,-38.52984 9.246725,-57.36541 4.626,-19.30819 10.662225,-38.34694 18.198524,-56.71567 7.283438,-17.75241 15.801335,-35.10271 25.976958,-51.37088 8.564077,-13.69173 17.676003,-27.37624 29.309988,-38.57701 2.85224,-2.74603 9.72347,-6.82187 9.72347,-6.82187 0,0 -5.94043,-1.05446 -6.08683,-3.3688 -0.0519,-0.82055 1.18603,-1.28645 1.99037,-1.45684 3.39186,-0.71854 10.16339,2.21232 10.16339,2.21232 0,0 -3.84259,-10.64394 -2.64453,-15.87204 2.15886,-9.42086 9.99614,-16.75238 16.74405,-23.67185 7.20035,-7.38341 14.67025,-16.5728 24.8026,-18.49512 2.21268,-0.41979 6.51927,1.77449 6.51927,1.77449 l 3.71462,18.78074 c 0,0 -0.23368,-22.295169 3.77829,-32.401741 3.70383,-9.330334 9.30941,-19.098097 17.97762,-24.161263 4.38184,-2.559466 10.18473,-3.167224 15.10268,-1.91616 5.35001,1.360976 9.83046,5.501909 13.43627,9.68198 1.81876,2.108408 3.83639,7.420338 3.83639,7.420338 l 1.96163,23.306106 3.96173,-39.447323 c 0,0 23.89358,-22.719079 39.13139,-27.225729 4.67266,-1.38196 10.06254,-1.270782 14.61037,0.478725 2.42586,0.933206 4.92017,2.649369 5.9552,5.033566 3.79894,8.750855 -1.42836,28.583991 -1.42836,28.583991 0,0 8.20314,-28.737941 17.52832,-39.861075 1.71712,-2.048195 5.28101,-2.171896 6.66409,-4.458967 0.83494,-1.380666 -0.49992,-3.558999 0.51543,-4.812966 5.43683,-6.714542 16.06667,-9.176105 24.63397,-8.060086 4.3589,0.567812 8.56664,3.557781 11.06454,7.174818 4.52071,6.54613 5.05118,23.32559 5.05118,23.32559 0,0 4.97124,1.851815 5.49976,4.070477 1.53557,6.446133 -8.93106,17.760392 -8.93106,17.760392 0,0 2.43877,5.736984 1.79714,8.591619 -2.74498,12.212575 -22.67752,29.931038 -22.67752,29.931038 0,0 -12.72812,24.43718 -17.58223,37.2955 -16.12108,42.70398 -28.04303,87.01045 -38.02784,131.55057 -1.9977,8.91129 -3.90706,17.92752 -4.35561,27.04896 -0.9687,19.69898 1.61733,39.43707 3.62978,59.05691 1.39846,13.6339 3.59045,27.18039 5.86142,40.69636 2.3545,14.01309 3.81384,28.29771 8.04612,41.8623 3.45429,11.0711 9.3443,21.22946 14.02754,31.8393 2.64304,5.98779 4.51798,12.37951 7.94163,17.95785 4.33794,7.06805 9.7386,13.54186 15.7316,19.27413 7.65975,7.32651 17.16154,12.4533 25.50397,18.9919 4.808,3.7684 8.06464,12.29189 14.14047,11.65789 1.45442,-0.15177 2.13562,-2.09589 2.73587,-3.42933 3.07482,-6.83063 1.20349,-15.13422 3.85885,-22.13858 2.33754,-6.16602 6.31816,-11.64542 10.37643,-16.84296 2.69138,-3.44693 5.57948,-6.88507 9.16782,-9.38481 3.4766,-2.4219 7.73157,-6.8932 11.60724,-5.18104 2.68344,1.18547 4.27341,5.84378 2.76003,8.35692 z"
     id="path7248" />
  <path
     style="display:inline;fill:url(#linearGradient64427);fill-opacity:1;stroke:none;stroke-width:1px;stroke-linecap:butt;stroke-linejoin:miter;stroke-opacity:1"
     d="m 614.98954,692.5602 -30.84334,-170.92248 44.64359,-42.33999 31.52169,-73.67936 22.32997,-85.01503 -5.72055,-88.40122 -17.18542,-78.53384 -30.61542,-65.615373 -45.83977,-51.293963 11.75795,-14.638871 35.93609,31.849931 -0.5783,-6.644183 -5.52703,-19.804875 14.03235,-1.561848 28.15124,12.342227 13.80349,30.749278 10.3396,-30.840115 29.06855,9.840139 14.83603,37.320633 10.56366,-11.867048 19.62972,7.855603 41.33298,72.572545 32.95983,81.07577 23.90125,153.20082 -29.3322,108.3964 -58.54548,100.84348 -25.75404,20.85263 -52.56208,5.68406 4.11164,7.65482 14.63709,11.56733 -27.17448,20.294 -42.32072,-8.81691 14.02238,28.78314 z"
     id="path56118" />
  <ellipse
     style="opacity:1;fill:#f7b8d5;fill-opacity:1;stroke:none;stroke-width:5.7;stroke-linecap:round;stroke-linejoin:round;stroke-dasharray:none;stroke-dashoffset:377.953;stroke-opacity:1;paint-order:markers fill stroke"
     id="path3918"
     cx="658.72693"
     cy="847.7356"
     rx="17.112339"
     ry="9.6636992" />
  <ellipse
     style="opacity:1;fill:#f7b8d5;fill-opacity:1;stroke:none;stroke-width:5.7;stroke-linecap:round;stroke-linejoin:round;stroke-dasharray:none;stroke-dashoffset:377.953;stroke-opacity:1;paint-order:markers fill stroke"
     id="path6510"
     cx="493.17816"
     cy="962.89227"
     rx="14.589888"
     ry="10.230127" />
  <ellipse
     style="opacity:1;fill:#f0a297;fill-opacity:1;stroke:none;stroke-width:5.7;stroke-linecap:round;stroke-linejoin:round;stroke-dasharray:none;stroke-dashoffset:377.953;stroke-opacity:1;paint-order:markers fill stroke"
     id="ellipse7066"
     cx="487.12991"
     cy="952.83636"
     rx="10.860895"
     ry="8.3116102" />
  <ellipse
     style="opacity:1;fill:#f7b8d5;fill-opacity:1;stroke:none;stroke-width:5.7;stroke-linecap:round;stroke-linejoin:round;stroke-dasharray:none;stroke-dashoffset:377.953;stroke-opacity:1;paint-order:markers fill stroke"
     id="ellipse7064"
     cx="478.88235"
     cy="944.58051"
     rx="10.16368"
     ry="7.3632708" />
  <ellipse
     style="opacity:1;fill:#f7b8d5;fill-opacity:1;stroke:none;stroke-width:6.03851;stroke-linecap:round;stroke-linejoin:round;stroke-dasharray:none;stroke-dashoffset:377.953;stroke-opacity:1;paint-order:markers fill stroke"
     id="path8362"
     cx="550.30115"
     cy="-741.44476"
     rx="9.182971"
     ry="6.44982"
     transform="matrix(-0.18035879,0.98360089,-0.79454974,-0.60719907,0,0)" />
  <ellipse
     style="opacity:1;fill:#f7b8d5;fill-opacity:1;stroke:none;stroke-width:5.7;stroke-linecap:round;stroke-linejoin:round;stroke-dasharray:none;stroke-dashoffset:377.953;stroke-opacity:1;paint-order:markers fill stroke"
     id="ellipse8504"
     cx="65.520447"
     cy="1141.3278"
     rx="9.5916872"
     ry="12.370173"
     transform="rotate(-23.836842)" />
  <ellipse
     style="opacity:1;fill:#f7b8d5;fill-opacity:1;stroke:none;stroke-width:5.7;stroke-linecap:round;stroke-linejoin:round;stroke-dasharray:none;stroke-dashoffset:377.953;stroke-opacity:1;paint-order:markers fill stroke"
     id="ellipse8506"
     cx="-314.00204"
     cy="1089.5128"
     rx="9.5916872"
     ry="12.370173"
     transform="rotate(-45.066214)" />
  <ellipse
     style="opacity:1;fill:#f7b8d5;fill-opacity:1;stroke:none;stroke-width:5.7;stroke-linecap:round;stroke-linejoin:round;stroke-dasharray:none;stroke-dashoffset:377.953;stroke-opacity:1;paint-order:markers fill stroke"
     id="path8502"
     cx="490.29959"
     cy="1022.3591"
     rx="9.5916872"
     ry="12.370173" />
  <ellipse
     style="opacity:1;fill:#f7b8d5;fill-opacity:1;stroke:none;stroke-width:6.03851;stroke-linecap:round;stroke-linejoin:round;stroke-dasharray:none;stroke-dashoffset:377.953;stroke-opacity:1;paint-order:markers fill stroke"
     id="ellipse8533"
     cx="1239.7411"
     cy="478.52557"
     rx="9.182971"
     ry="6.44982"
     transform="matrix(0.7752479,0.6316571,-0.91474175,0.40403902,0,0)" />
  <ellipse
     style="opacity:1;fill:#f7b8d5;fill-opacity:1;stroke:none;stroke-width:5.7;stroke-linecap:round;stroke-linejoin:round;stroke-dasharray:none;stroke-dashoffset:377.953;stroke-opacity:1;paint-order:markers fill stroke"
     id="ellipse8535"
     cx="490.55325"
     cy="1051.9961"
     rx="9.5916872"
     ry="12.370173" />
  <ellipse
     style="opacity:1;fill:#f7b8d5;fill-opacity:1;stroke:none;stroke-width:5.75299;stroke-linecap:round;stroke-linejoin:round;stroke-dasharray:none;stroke-dashoffset:377.953;stroke-opacity:1;paint-order:markers fill stroke"
     id="ellipse8537"
     cx="4.4755034"
     cy="1187.9763"
     rx="12.41276"
     ry="17.569923"
     transform="matrix(0.79098543,-0.61183498,0.44983817,0.89311008,0,0)" />
  <ellipse
     style="opacity:1;fill:#f7b8d5;fill-opacity:1;stroke:none;stroke-width:5.75299;stroke-linecap:round;stroke-linejoin:round;stroke-dasharray:none;stroke-dashoffset:377.953;stroke-opacity:1;paint-order:markers fill stroke"
     id="ellipse8539"
     cx="-296.6275"
     cy="1077.9263"
     rx="12.41276"
     ry="17.569923"
     transform="matrix(0.5763118,-0.8172299,0.69238813,0.72152524,0,0)" />
  <ellipse
     style="opacity:1;fill:#f7b8d5;fill-opacity:1;stroke:none;stroke-width:5.7;stroke-linecap:round;stroke-linejoin:round;stroke-dasharray:none;stroke-dashoffset:377.953;stroke-opacity:1;paint-order:markers fill stroke"
     id="ellipse9733"
     cx="618.76642"
     cy="850.32025"
     rx="9.7817154"
     ry="11.005472" />
  <ellipse
     style="opacity:1;fill:#f7b8d5;fill-opacity:1;stroke:none;stroke-width:5.73691;stroke-linecap:round;stroke-linejoin:round;stroke-dasharray:none;stroke-dashoffset:377.953;stroke-opacity:1;paint-order:markers fill stroke"
     id="ellipse9735"
     cx="856.91925"
     cy="-548.68683"
     rx="12.887038"
     ry="9.968359"
     transform="matrix(0.11884856,0.99291239,-0.99915088,-0.04120088,0,0)" />
  <ellipse
     style="opacity:1;fill:#f7b8d5;fill-opacity:1;stroke:none;stroke-width:5.7322;stroke-linecap:round;stroke-linejoin:round;stroke-dasharray:none;stroke-dashoffset:377.953;stroke-opacity:1;paint-order:markers fill stroke"
     id="ellipse9737"
     cx="884.17719"
     cy="-569.82037"
     rx="16.719326"
     ry="11.007646"
     transform="matrix(0.10112453,0.99487378,-0.99882309,-0.04850186,0,0)" />
  <ellipse
     style="opacity:1;fill:#f7b8d5;fill-opacity:1;stroke:none;stroke-width:5.79616;stroke-linecap:round;stroke-linejoin:round;stroke-dasharray:none;stroke-dashoffset:377.953;stroke-opacity:1;paint-order:markers fill stroke"
     id="ellipse9741"
     cx="1185.2861"
     cy="52.112831"
     rx="16.635073"
     ry="11.345609"
     transform="matrix(0.68695019,0.7267045,-0.87756267,0.47946196,0,0)" />
  <path
     style="display:inline;fill:#294974;fill-opacity:1;stroke:none;stroke-width:1px;stroke-linecap:butt;stroke-linejoin:miter;stroke-opacity:1"
     d="m 303.21968,876.78222 c 0.92005,6.08002 2.16582,15.12558 6.29667,21.38379 5.17872,7.84573 13.20543,12.87325 21.54849,17.20545 14.06375,7.3027 29.33944,13.11688 45.05118,15.18081 9.715,1.27618 19.5706,-2.6829 29.3356,-1.87386 8.35904,0.69255 16.55896,3.0305 24.50548,5.7149 5.71201,1.92956 11.64092,3.84261 16.49738,7.41543 6.12297,4.50458 11.44378,10.41881 15.11681,17.07395 6.10584,11.06315 8.19928,23.98857 10.61974,36.39083 4.45232,22.81328 -2.6922,48.27698 7.06841,69.37198 1.45041,3.1347 4.14465,5.8206 7.17739,7.4736 3.87096,2.1099 8.73249,3.7048 12.98166,2.5299 2.51617,-0.6958 4.83572,-2.8188 5.8255,-5.2345 2.54549,-6.2125 -1.22878,-20.1039 -1.22878,-20.1039 l 13.39231,0.1466 c 0,0 4.06178,17.4586 9.53381,24.1729 2.12941,2.6128 5.29896,4.3744 8.46464,5.5318 4.70877,1.7216 10.20121,3.5029 14.92874,1.8335 4.26869,-1.5074 8.00896,-5.4619 9.45107,-9.7531 0.99541,-2.962 -0.28759,-6.2975 -1.13397,-9.3055 -5.56336,-19.7718 -16.50318,-37.6316 -25.53636,-56.0781 -2.02051,-4.1261 -6.4064,-12.20325 -6.4064,-12.20325 l 2.33879,-0.34546 c 0,0 17.37289,14.45091 24.97424,22.76321 4.3036,4.7061 7.03473,10.7546 11.57544,15.2324 3.56859,3.5191 7.27069,7.5784 12.09709,8.9293 3.13765,0.8782 7.03952,0.9514 9.73511,-0.8789 3.51013,-2.3833 5.19127,-7.1534 5.74025,-11.3605 0.59253,-4.5409 -1.23568,-9.1526 -2.84177,-13.4411 -2.15222,-5.7468 -5.2037,-11.2296 -8.96026,-16.08206 -8.21099,-10.60629 -18.39265,-19.7204 -29.12421,-27.76698 -15.63716,-11.72482 -34.8036,-18.07144 -50.73123,-29.39852 -2.71149,-1.9283 -6.12569,-3.51397 -7.56229,-6.51509 -3.07026,-6.41389 -2.93623,-14.56764 -0.70934,-21.32082 1.92623,-5.84141 6.49173,-10.83808 11.46315,-14.45986 13.31828,-9.70264 31.28639,-10.53553 46.28654,-17.35561 8.53143,-3.87896 15.64844,-11.09214 24.74452,-13.34889 6.70971,-1.66468 13.84909,0.74326 20.73866,0.17298 5.62061,-0.46524 11.03309,-2.63067 16.66544,-2.92104 4.60977,-0.23765 9.85144,-1.39322 13.81327,0.97539 4.0745,2.43598 5.6918,7.69573 7.60833,12.03882 3.5685,8.08666 4.48018,17.10446 7.01044,25.57358 2.37841,7.96086 3.15874,16.74138 7.67706,23.71397 2.37167,3.65992 5.63253,7.22954 9.71511,8.76327 3.12558,1.17421 6.92603,1.11404 10.01543,-0.1523 3.01777,-1.23698 5.3287,-4.00482 7.07303,-6.76061 1.52072,-2.40253 2.61213,-5.25302 2.68844,-8.09536 0.14709,-5.47855 -3.04279,-10.53371 -4.3372,-15.85918 -1.35628,-5.58002 -2.82282,-11.15825 -3.58986,-16.84928 -0.58112,-4.3116 -1.34761,-8.71948 -0.75695,-13.02978 0.36028,-2.62913 0.42329,-5.98817 2.58277,-7.53049 1.63237,-1.16585 4.02136,0.19454 6.01786,0 3.28609,-0.3202 6.55983,-2.87277 9.71865,-1.91216 13.50177,4.10594 18.13094,22.21584 29.95741,29.91592 3.52908,2.29775 8.17477,2.38805 11.78054,4.56348 2.1175,1.27753 4.08322,3.0923 6.53758,3.39564 3.76774,0.46566 5.43817,-4.09673 9.21222,-3.68526 3.71249,0.40476 5.29962,4.50414 8.99453,5.04644 2.91585,0.42795 4.87705,-1.23165 7.82186,-1.34739 4.49706,-0.17675 8.3376,4.52597 12.82727,4.21354 5.00351,-0.34819 10.62491,-2.52576 13.50717,-6.63051 2.39519,-3.41108 2.181,-8.33996 1.37153,-12.42862 -1.2483,-6.30517 -5.05372,-12.05306 -9.25835,-16.91459 -7.14425,-8.26041 -16.7862,-14.12644 -26.17229,-19.70998 -11.34493,-6.7488 -23.39233,-12.62475 -36.03253,-16.42989 -13.69276,-4.122 -28.07198,-6.76921 -42.37159,-6.70759 -9.5504,0.0412 -18.75005,3.83811 -28.2594,4.72359 -13.10073,1.2199 -39.46425,0.79247 -39.46425,0.79247 0,0 6.84326,-10.68648 9.04793,-16.58568 2.4103,-6.44942 3.42525,-13.36362 4.42492,-20.17576 1.44644,-9.85659 1.89954,-19.84546 2.2548,-29.80128 0.88242,-24.72925 1.62676,-49.56527 -0.31039,-74.23431 -1.75679,-22.37219 -6.22069,-44.4614 -10.23027,-66.54135 -3.83236,-21.10403 -8.54257,-42.04176 -13.2076,-62.97748 -3.75001,-16.82931 -7.05245,-33.79106 -11.88131,-50.34311 -1.84988,-6.3409 -9.53797,-40.30219 -16.13931,-40.07414 -7.87741,0.27213 1.85159,34.02346 3.37038,44.17536 2.7694,18.51127 6.32233,36.89727 9.64204,55.3178 4.3181,23.9604 9.22063,47.81489 13.36634,71.80572 2.55556,14.78879 5.71606,29.51706 7.09261,44.46177 1.73251,18.80932 2.08107,37.77014 1.44549,56.64839 -0.72978,21.67645 -5.46143,43.10484 -6.03078,64.7861 -0.18582,7.07636 1.70231,14.19113 0.85586,21.21914 -0.46349,3.84836 -4.14785,7.41353 -3.214,11.17552 0.46064,1.85569 2.18172,3.4797 3.97929,4.13125 12.51073,4.53467 26.37981,-4.17755 39.68614,-4.32953 10.06271,-0.11494 20.07133,1.53036 30.07898,2.58778 8.36748,0.88412 16.64654,2.64639 25.0461,3.14006 6.27538,0.36882 12.74799,-1.61523 18.85813,-0.13784 9.75869,2.35958 17.96041,8.99917 26.69113,13.95641 9.55661,5.42618 19.89447,9.93862 28.08933,17.26095 3.07755,2.74987 5.69176,6.10878 7.624,9.75563 1.19325,2.2521 3.64421,5.08896 2.34056,7.279 -0.79435,1.33446 -3.06332,1.20024 -4.57876,0.8608 -2.94763,-0.66022 -5.28004,-3.10483 -7.34084,-5.31334 -1.82915,-1.96026 -2.29943,-4.99134 -4.25448,-6.82606 -2.72746,-2.55958 -6.4725,-3.77732 -9.88028,-5.31924 -3.10284,-1.40394 -6.7322,-1.68743 -9.57661,-3.56039 -2.48339,-1.63523 -3.24163,-7.02667 -6.15911,-6.45262 -2.93017,0.57654 -3.80148,5.40255 -3.26954,8.34114 0.53043,2.9302 5.22015,3.76453 5.96899,6.64666 0.69137,2.66096 -0.22753,5.80676 -1.82676,8.04308 -1.0864,1.51919 -2.90998,2.76418 -4.7693,2.9407 -3.47081,0.32951 -6.82103,-1.86718 -9.77686,-3.716 -3.05826,-1.91288 -5.37054,-4.82555 -7.88355,-7.41337 -4.60666,-4.74379 -8.28238,-10.37907 -13.15999,-14.84379 -4.0947,-3.74809 -8.30463,-7.67327 -13.38723,-9.90529 -4.26619,-1.87349 -9.12211,-1.92559 -13.72523,-2.64784 -2.92705,-0.45927 -6.01435,-2.01091 -8.82391,-1.07021 -3.08939,1.0344 -5.28133,4.03819 -7.038,6.78199 -1.77648,2.77473 -2.59211,6.10616 -3.24995,9.33451 -1.12013,5.49704 -1.70979,11.21264 -1.1267,16.79226 0.73511,7.03422 4.21108,13.51956 5.76664,20.4189 0.64459,2.85892 1.88378,5.7662 1.47244,8.66787 -0.21335,1.50498 -0.52713,3.66972 -1.98312,4.1063 -2.32399,0.69685 -4.49053,-2.06017 -6.24953,-3.73123 -1.81404,-1.72336 -3.08752,-3.98512 -4.17319,-6.23946 -1.76468,-3.66427 -2.71937,-7.67955 -3.70024,-11.62655 -1.51813,-6.10893 -1.53328,-12.55939 -3.3628,-18.58239 -1.83064,-6.02667 -4.02436,-12.10133 -7.54533,-17.32386 -2.27191,-3.36985 -4.81466,-7.07308 -8.53665,-8.70534 -4.76174,-2.08823 -10.3929,-0.61739 -15.59083,-0.48958 -9.18967,0.22596 -18.29629,2.09557 -27.4879,2.2192 -4.01248,0.054 -8.69438,-2.88959 -12.02121,-0.64568 -23.71114,15.99292 -43.22253,22.30739 -75.59345,27.46328 -10.29132,1.63916 -12.92864,16.92456 -15.91675,26.90802 -2.50918,8.38332 -4.98523,18.31114 -1.2459,26.22275 1.88877,3.99622 7.31357,5.00419 10.63379,7.92195 3.72717,3.27538 6.46963,7.60701 10.35314,10.69541 5.92942,4.71543 12.90867,7.93715 19.46982,11.72458 6.64717,3.83708 13.59707,7.1462 20.15112,11.14025 4.39409,2.67777 9.0533,5.08936 12.8309,8.58339 5.65002,5.22589 9.64123,12.00157 14.29336,18.13267 4.31986,5.6932 11.85845,10.2123 12.64227,17.3158 0.13422,1.2164 -0.2718,3.0995 -1.46623,3.3657 -1.7531,0.3907 -2.73522,-2.3307 -4.04617,-3.5585 -3.31944,-3.1089 -6.53583,-6.3301 -9.66162,-9.6336 -2.65266,-2.8035 -5.11833,-5.7784 -7.71003,-8.6383 -3.20532,-3.5371 -6.10944,-7.38822 -9.69586,-10.53821 -3.87283,-3.40155 -8.35693,-6.03993 -12.63564,-8.91429 -2.61078,-1.75387 -5.01773,-3.94509 -7.95057,-5.08118 -3.00356,-1.16348 -6.33299,-2.085 -9.52303,-1.63927 -1.46322,0.20445 -3.14196,0.71388 -3.99468,1.9204 -1.85891,2.63018 -1.49858,6.41828 -1.03982,9.60622 0.80274,5.57831 4.20581,10.45983 6.4853,15.61403 3.82308,8.6445 8.21072,17.0313 12.05563,25.6661 3.17627,7.1332 6.12589,14.3657 9.09461,21.5877 1.34141,3.2633 3.41463,6.3354 3.93877,9.8245 0.36113,2.404 1.27909,5.7318 -0.60516,7.2677 -1.24093,1.0115 -3.35078,0.1694 -4.76846,-0.5745 -2.8051,-1.4718 -4.54456,-4.4788 -6.29686,-7.1178 -3.94402,-5.9398 -6.66065,-12.6418 -9.26595,-19.2787 -3.06969,-7.8199 -4.56012,-16.1881 -7.45019,-24.0762 -2.56696,-7.0062 -4.68452,-14.3504 -8.7644,-20.59783 -1.28779,-1.97198 -2.73909,-4.08376 -4.84065,-5.14703 -1.84317,-0.93254 -4.3364,-1.7317 -6.15184,-0.74627 -2.59501,1.40858 -3.23404,5.07755 -3.89652,7.95493 -0.73509,3.1928 -0.0223,6.553 0.0284,9.8289 0.1639,10.5872 0.99963,21.165 0.89153,31.7529 -0.0619,6.0597 4.7517,15.9238 -0.88118,18.1586 -3.23986,1.2854 -6.04049,-4.1045 -7.52919,-7.2561 -4.38855,-9.2906 -3.46924,-20.5078 -2.42408,-30.7295 0.46564,-4.5539 3.25231,-8.6473 3.82834,-13.1886 0.52649,-4.1507 0.37756,-8.4311 -0.37866,-12.54615 -1.73924,-9.46429 -6.27646,-18.19337 -9.44492,-27.27955 -2.53021,-7.25586 -3.7157,-15.14326 -7.63887,-21.7507 -2.79525,-4.70779 -6.98665,-8.47391 -11.00092,-12.19713 -5.68659,-5.27429 -11.78412,-10.19433 -18.40029,-14.24176 -7.75429,-4.74367 -15.7996,-9.66091 -24.68069,-11.59937 -4.45574,-0.97255 -9.16134,-0.47717 -13.6813,0.1306 -3.5911,0.48287 -6.88786,2.73415 -10.51109,2.7712 -11.55463,0.11817 -22.72129,-4.52756 -33.69402,-8.15008 -11.03723,-3.64382 -21.88194,-8.07326 -32.11124,-13.59225 -6.10772,-3.29528 -11.49149,-7.786 -17.31034,-11.56808 -1.88734,-1.22672 -6.04532,-5.83325 -5.70853,-3.60761 z"
     id="path1003" />
  <path
     style="fill:none;stroke:#7d3d35;stroke-width:9.5;stroke-linecap:round;stroke-linejoin:miter;stroke-dasharray:none;stroke-opacity:1"
     d="m 505.98724,1026.3221 1.82803,11.2295"
     id="path9845" />
  <path
     style="display:inline;fill:#294974;fill-opacity:1;stroke:none;stroke-width:1px;stroke-linecap:butt;stroke-linejoin:miter;stroke-opacity:1"
     d="m 619.2686,696.25808 c 0,0 40.68105,3.03768 48.16923,-10.71611 4.20079,-7.71573 -14.86298,-20.67852 -6.3312,-22.77324 5.45622,-1.33961 25.71458,12.49191 39.26384,7.48096 11.56497,-4.27709 24.69779,-17.46988 22.24677,-29.55436 -1.57326,-7.7568 -19.96128,-5.41957 -18.41581,-13.18195 16.72615,-6.96401 36.85362,0.91272 52.95743,-8.32767 26.58652,-15.25538 41.11483,-43.86641 56.59673,-70.32167 23.49941,-40.15545 46.11937,-82.83967 54.06464,-128.68239 9.12885,-52.67174 4.08787,-108.91157 -11.21098,-160.13259 -18.51283,-61.9815 -46.86461,-121.52618 -84.64756,-174.104492 -6.42347,-8.93883 -18.75261,-20.071482 -29.39108,-17.245404 -5.69836,1.513753 -1.9779,9.207025 -7.86521,8.88724 C 731.35329,71.067495 732.457,55.531608 720.76344,45.639398 713.40339,39.413132 705.5289,36.71472 693.796,34.481033 683.4724,32.515647 682.45736,51.750552 680.31513,62.589193 674.83542,52.10219 679.00707,43.591136 667.66037,35.450732 c -11.22456,-8.052776 -32.64664,-16.23247 -44.36048,-8.909634 -3.9186,2.449695 2.75301,15.736608 5.3239,22.204431 -18.41504,-5.714427 -19.77499,-34.661191 -36.53044,-31.892154 -8.9816,1.484316 -20.74519,19.541682 -12.86088,24.092493 45.19039,26.083803 74.60903,105.475902 84.60636,167.104342 11.4083,70.32638 10.54929,144.42361 -16.8129,208.58774 -15.95967,37.42529 -39.26444,78.02373 -64.93083,95.73957 0.31686,6.56311 3.71001,18.60185 4.40477,21.32592 35.16254,-13.37209 64.19693,-74.12503 79.28348,-114.34015 26.07126,-69.4963 30.06155,-140.518 14.47797,-213.08934 -13.1701,-61.33197 -43.56402,-131.487197 -88.93391,-167.907127 -0.3087,-4.416618 1.35036,-8.338528 3.28721,-9.606944 12.60012,5.010535 26.8872,26.48519 35.17308,26.909557 2.58436,0.13236 3.72386,-2.341674 3.81437,-5.155285 0.24663,-7.667105 -7.82836,-20.404458 -2.72636,-22.346109 9.15858,-3.485448 19.77943,2.399065 27.53373,8.390622 10.23336,7.907063 11.90516,29.813507 21.30706,34.368348 1.85514,0.89874 4.0821,-0.618625 6.18436,-3.362508 6.09092,-7.949905 4.57277,-19.189716 7.69742,-23.361265 4.84302,-6.465678 19.81334,2.959336 23.67006,10.057615 5.89851,10.856193 8.34771,21.224972 13.65344,32.386229 1.10438,2.323184 4.20013,2.504262 7.37998,0.993265 4.2586,-2.023594 3.307,-8.510021 7.83906,-9.81041 7.89796,-2.266168 16.95163,5.900603 20.86475,13.125609 29.121,53.767643 56.87682,110.546813 70.41137,170.677693 11.51896,51.17609 17.00159,104.50949 8.43964,156.26248 -7.23975,43.76094 -25.9503,85.46378 -47.0986,124.4533 -13.18211,24.30286 -24.48075,51.59053 -48.32015,65.59339 -16.76078,9.84499 -30.79087,2.31791 -50.1956,9.04626 -4.25983,1.47704 -10.76964,5.33738 -9.33212,9.61072 2.16208,6.42723 11.97136,6.05275 13.3573,12.69075 1.36923,6.55794 -5.50637,13.94841 -11.78748,16.27843 -14.64558,5.43288 -30.01357,-12.0343 -45.58932,-10.84887 -3.43997,0.26181 -8.31102,0.6881 -9.59,3.89218 -3.72616,9.33468 17.15053,16.82956 12.56477,25.77335 -5.12156,9.98877 -32.51103,4.03267 -32.51103,4.03267 z"
     id="path1076" />
  <path
     style="display:inline;fill:url(#linearGradient23179);fill-opacity:1;stroke:none;stroke-width:1px;stroke-linecap:butt;stroke-linejoin:miter;stroke-opacity:1"
     d="m 416.64191,431.39522 c 44.42054,-24.68725 68.85978,30.27972 44.77649,62.03718 l 14.77557,13.68439 14.78236,-37.62523 -7.75762,-32.17105 -16.31143,-16.78096 -32.23127,-6.09982 z"
     id="path20099" />
  <ellipse
     style="display:inline;fill:url(#radialGradient17205);fill-opacity:1;stroke:none;stroke-width:7.55906;stroke-linecap:round;stroke-linejoin:round;stroke-miterlimit:4;stroke-dasharray:none;stroke-dashoffset:377.953;stroke-opacity:1;paint-order:markers fill stroke"
     id="path4633"
     cx="429.8381"
     cy="461.32275"
     rx="28.27039"
     ry="33.537544" />
  <path
     style="display:inline;fill:#294974;fill-opacity:1;stroke:none;stroke-width:1px;stroke-linecap:butt;stroke-linejoin:miter;stroke-opacity:1"
     d="m 410.93935,429.57731 c 15.11066,-30.1296 49.93336,-55.75257 84.65633,-57.31002 15.97938,-0.71674 32.25827,2.9803 44.37702,13.42015 6.22089,5.35907 12.32977,12.96957 10.41873,20.80201 -1.404,5.75435 -12.45894,10.1448 -15.44097,5.02706 -9.04937,-15.53047 -24.38936,-18.63856 -39.23776,-19.35361 -15.84468,-0.76303 -34.63071,5.99027 -50.64832,13.55017 -12.48359,5.89194 -34.12503,23.86424 -34.12503,23.86424 z"
     id="path8830" />
  <path
     style="display:inline;fill:#5d7c60;fill-opacity:1;stroke:none;stroke-width:1px;stroke-linecap:butt;stroke-linejoin:miter;stroke-opacity:1"
     d="m 403.06771,482.97146 16.12877,-2.3699 26.50539,2.49748 30.26388,24.84339 -13.09923,13.95879 -24.34582,2.8394 -21.21771,-11.80248 z"
     id="path4797" />
  <ellipse
     style="fill:#ffffff;fill-opacity:1;stroke:none;stroke-width:7.55906;stroke-linecap:round;stroke-linejoin:round;stroke-miterlimit:4;stroke-dasharray:none;stroke-dashoffset:377.953;stroke-opacity:1;paint-order:markers fill stroke"
     id="path4737"
     cx="424.69534"
     cy="442.1702"
     rx="6.4149604"
     ry="6.9913335" />
  <path
     id="path4951"
     style="display:inline;fill:none;fill-opacity:0.957211;stroke:#225553;stroke-width:13.6063;stroke-linecap:round;stroke-linejoin:round;stroke-miterlimit:4;stroke-dasharray:none;stroke-dashoffset:377.953;stroke-opacity:1;paint-order:markers fill stroke"
     d="m 471.59436,510.89554 c -17.26522,-29.0622 -36.80472,-33.98631 -65.85719,-33.97612" />
  <ellipse
     style="display:inline;fill:none;fill-opacity:1;stroke:url(#linearGradient25095);stroke-width:10.9606;stroke-linecap:round;stroke-linejoin:round;stroke-miterlimit:4;stroke-dasharray:none;stroke-dashoffset:377.953;stroke-opacity:1;paint-order:markers fill stroke"
     id="path4493"
     cx="445.42758"
     cy="468.83231"
     rx="43.910763"
     ry="55.164482" />
  <path
     style="display:inline;fill:url(#linearGradient57727);fill-opacity:1;stroke:none;stroke-width:1px;stroke-linecap:butt;stroke-linejoin:miter;stroke-opacity:1"
     d="m 527.95393,449.1488 -5.68827,32.02029 44.59376,25.40566 3.21739,-35.32038 36.51724,-17.45083 -46.20242,-19.48918 z"
     id="path4945" />
  <path
     style="display:inline;fill:#294974;fill-opacity:1;stroke:none;stroke-width:1px;stroke-linecap:butt;stroke-linejoin:miter;stroke-opacity:1"
     d="m 527.14859,474.71556 c 2.6928,15.42395 38.03823,23.83442 38.03823,23.83442 0,0 0.6399,-18.68874 -0.31075,-28.67803 2.0839,-1.84525 8.55183,-0.69688 8.27344,2.07262 -1.35582,13.48802 -1.73628,24.65288 -4.22245,35.6508 -4.54832,4.25084 -12.58995,3.31498 -18.59982,1.69069 -11.61625,-3.13952 -23.37329,-9.09409 -28.64408,-19.91133 -3.39082,-6.95897 -3.12593,-17.3123 1.88964,-23.08859 3.61733,1.09802 5.71063,2.85948 5.71063,2.85948 0,0 -2.46083,3.70273 -2.13484,5.56994 z"
     id="path12825" />
  <ellipse
     style="display:inline;fill:#225553;fill-opacity:1;stroke:none;stroke-width:7.56776;stroke-linecap:round;stroke-linejoin:round;stroke-miterlimit:4;stroke-dasharray:none;stroke-dashoffset:377.953;stroke-opacity:1;paint-order:markers fill stroke"
     id="path14806"
     cx="613.03503"
     cy="252.84433"
     rx="17.636656"
     ry="15.056934"
     transform="matrix(0.94961826,0.31340892,-0.24833459,0.96867432,0,0)" />
  <ellipse
     style="display:inline;fill:#294974;fill-opacity:1;stroke:none;stroke-width:7.56101;stroke-linecap:round;stroke-linejoin:round;stroke-miterlimit:4;stroke-dasharray:none;stroke-dashoffset:377.953;stroke-opacity:1;paint-order:markers fill stroke"
     id="ellipse14890"
     cx="207.53242"
     cy="-666.38715"
     rx="16.155611"
     ry="13.268682"
     transform="matrix(-0.37789824,0.92584714,-0.93753392,-0.34789386,0,0)" />
  <ellipse
     style="display:inline;fill:#ffdddd;fill-opacity:1;stroke:none;stroke-width:7.5706;stroke-linecap:round;stroke-linejoin:round;stroke-miterlimit:4;stroke-dasharray:none;stroke-dashoffset:377.953;stroke-opacity:1;paint-order:markers fill stroke"
     id="path14947"
     ry="9.1132841"
     rx="12.089506"
     cy="302.33633"
     cx="633.3866"
     transform="matrix(0.97185421,0.2355831,-0.31063077,0.95053065,0,0)" />
  <ellipse
     style="display:inline;fill:#ffdddd;fill-opacity:1;stroke:none;stroke-width:7.6383;stroke-linecap:round;stroke-linejoin:round;stroke-miterlimit:4;stroke-dasharray:none;stroke-dashoffset:377.953;stroke-opacity:1;paint-order:markers fill stroke"
     id="ellipse15317"
     ry="8.7336941"
     rx="9.474247"
     cy="531.29663"
     cx="-565.63934"
     transform="matrix(-0.05930613,-0.99823984,0.96565521,-0.2598269,0,0)" />
  <path
     style="display:inline;fill:#294974;fill-opacity:1;stroke:none;stroke-width:1px;stroke-linecap:butt;stroke-linejoin:miter;stroke-opacity:1"
     d="m 525.68519,464.03949 c -4.80368,-2.6321 -6.15164,-12.75878 -2.9862,-17.22904 6.31921,-8.924 17.06064,-15.8358 27.99404,-17.4308 30.79159,-4.49197 46.17334,2.54874 61.5451,27.04251 -12.96731,10.93046 -26.69572,15.42643 -41.56912,18.18468 -14.3861,2.66788 -36.55368,3.18716 -47.08977,-4.45174 -2.85674,-2.0712 -1.35927,-12.48898 4.72293,-10.46039 15.18156,4.56787 28.40765,3.52238 42.34344,1.87135 9.99251,-1.18385 26.11078,-10.27207 26.11078,-10.27207 0,0 -16.81605,-9.85528 -35.06052,-8.68466 -15.18676,0.97444 -24.95423,9.57825 -36.01068,21.43016 z"
     id="path10024" />
  <ellipse
     style="opacity:1;fill:#f7b8d5;fill-opacity:1;stroke:none;stroke-width:6.03851;stroke-linecap:round;stroke-linejoin:round;stroke-dasharray:none;stroke-dashoffset:377.953;stroke-opacity:1;paint-order:markers fill stroke"
     id="ellipse8531"
     cx="953.26453"
     cy="-282.76132"
     rx="9.182971"
     ry="6.44982"
     transform="matrix(0.24268977,0.97010395,-0.97456113,-0.22412185,0,0)" />
</svg>
