<?xml version="1.0" encoding="UTF-8"?>
<!-- Created with Inkscape (http://www.inkscape.org/) -->
<svg width="882.67" height="1297.3" version="1.1" viewBox="0 0 882.67 1297.3" xmlns="http://www.w3.org/2000/svg" xmlns:xlink="http://www.w3.org/1999/xlink">
 <defs>
  <radialGradient id="radialGradient17205" cx="425.18" cy="441.22" r="28.27" gradientTransform="matrix(1.1696 .0094681 -.014129 1.7454 -66.283 -326.47)" gradientUnits="userSpaceOnUse">
   <stop stop-color="#294975" offset="0"/>
   <stop offset="1"/>
  </radialGradient>
  <linearGradient id="linearGradient23179" x1="436.58" x2="475.67" y1="418.14" y2="503.35" gradientUnits="userSpaceOnUse">
   <stop stop-color="#fac34c" offset="0"/>
   <stop stop-color="#fac34c" stop-opacity="0" offset="1"/>
  </linearGradient>
  <linearGradient id="linearGradient25095" x1="446.46" x2="432.24" y1="425.54" y2="541.21" gradientTransform="matrix(.96193 0 0 1 18.631 0)" gradientUnits="userSpaceOnUse">
   <stop stop-color="#294975" offset="0"/>
   <stop stop-color="#1f5849" offset=".66004"/>
   <stop stop-color="#5d7c60" offset="1"/>
  </linearGradient>
  <linearGradient id="linearGradient57727" x1="570.55" x2="554.43" y1="442.81" y2="473.75" gradientUnits="userSpaceOnUse">
   <stop stop-color="#facb68" offset="0"/>
   <stop stop-color="#faa268" offset="1"/>
  </linearGradient>
  <linearGradient id="linearGradient60401" x1="531.34" x2="466.81" y1="419.58" y2="553.41" gradientUnits="userSpaceOnUse">
   <stop stop-color="#678980" offset="0"/>
   <stop stop-color="#5d7c60" offset="1"/>
  </linearGradient>
  <linearGradient id="linearGradient62706" x1="307.75" x2="355.99" y1="930.48" y2="1169.6" gradientUnits="userSpaceOnUse">
   <stop stop-color="#cdd7e4" offset="0"/>
   <stop stop-color="#e4e4e4" offset="1"/>
  </linearGradient>
  <linearGradient id="linearGradient64427" x1="580.86" x2="763.56" y1="569.83" y2="295.78" gradientUnits="userSpaceOnUse">
   <stop stop-color="#cdd7e4" offset="0"/>
   <stop stop-color="#e4e4e4" offset="1"/>
  </linearGradient>
  <linearGradient id="linearGradient72940" x1="297.51" x2="333.79" y1="704.6" y2="813.35" gradientUnits="userSpaceOnUse">
   <stop stop-color="#cdd7e4" offset="0"/>
   <stop stop-color="#cdd7e4" stop-opacity="0" offset="1"/>
  </linearGradient>
  <linearGradient id="linearGradient76143" x1="608.15" x2="521.12" y1="765.64" y2="754.93" gradientUnits="userSpaceOnUse">
   <stop stop-color="#cdd7e4" offset="0"/>
   <stop stop-color="#cdd7e4" stop-opacity="0" offset="1"/>
  </linearGradient>
  <linearGradient id="linearGradient1658" x1="322.02" x2="341.78" y1="1010.7" y2="927.24" gradientUnits="userSpaceOnUse">
   <stop stop-color="#c2d2e5" offset="0"/>
   <stop stop-color="#c5d2e5" stop-opacity="0" offset="1"/>
  </linearGradient>
 </defs>
 <path d="m143.15 1198.8 24.766 56.227 218.46-51.79-0.54477-24.664 27.267 19.539 49.971-27.3-24.504-45.308-32.363-167.17 6.3449-47.381-144.53-39.053z" fill="url(#linearGradient62706)"/>
 <path d="m422.54 924.62 185.73-105.54-3.1907 25.411 72.988-5.7773 69.248 14.834 39.191 34.709 2.2023 13.819-10.811 2.0553-35.378-5.5972-7.539 1.9124-16.291-8.2795-25.847-26.731-22.77-1.3942-4.3969 17.761 7.2121 46.764-17.403 3.4897-4.9322-13.448-17.704-52.415-13.842-4.395-57.127 4.3079-67.914 32.194-6.7473 33.321 22.007 25.82 54.164 29.983 25.89 34.695-4.2755 14.427-13.204-4.8824-25.832-30.651-24.521-13.378 34.219 82.423-7.4977 7.9965-18.149-8.1833-12.714-25.592-17.98 1.8524 2.5551 23.47-14.523-1.041-8.4882-16.071 1.7306-56.095-17.034-47.568z" fill="#efa196"/>
 <ellipse transform="matrix(.67962 .73356 -.87345 .48691 0 0)" cx="1160.2" cy="68.383" rx="15.058" ry="10.209" fill="#f7b8d5" style="paint-order:markers fill stroke"/>
 <ellipse transform="matrix(.82534 .56463 -.79653 .6046 0 0)" cx="1167.5" cy="329.03" rx="17.694" ry="11.946" fill="#f7b8d5" style="paint-order:markers fill stroke"/>
 <ellipse transform="matrix(.73046 .68296 -.87881 .47718 0 0)" cx="1161.9" cy="134.63" rx="17.694" ry="11.946" fill="#f7b8d5" style="paint-order:markers fill stroke"/>
 <path d="m692.37 842.48s17.98 8.3338 28.593 16.044c9.6736 7.0274 17.903 17.549 17.903 17.549" fill="#7d3d35" stroke="#7d3d35" stroke-linecap="round" stroke-width="9.4"/>
 <ellipse transform="matrix(.83175 -.55515 .38943 .92106 0 0)" cx="73.998" cy="1039.3" rx="21.262" ry="17.477" fill="#f7b8d5" style="paint-order:markers fill stroke"/>
 <ellipse transform="rotate(31.173)" cx="937.23" cy="417.09" rx="16.277" ry="22.266" fill="#f7b8d5" style="paint-order:markers fill stroke"/>
 <path d="m132.29 1268.2-54.642-60.958 124.57-257.78 41.416-58.592 25.283-104.36 53.219-132.12 60.9-132.78 17.443 81.965 73.3 65.784 76.108 17.701 60.376-22.616 9.3083 119.81-16.182 53.998-26.898 27.403-80.348 29.293s-6.9584 8.3662-10.828 12.916c-9.5045 11.178-20.498 22.431-35.033 24.429-14.247 1.9579-38.468-10.368-38.468-10.368l-34.499 1.4866c-34.975-18.995-56.436-32.87-90.8-22.111-22.875 7.1616-43.625 40.514-43.625 40.514l-26.747 55.91-73.061 255.02z" fill="#e4e4e4"/>
 <path d="m401.94 488.2-12.702 13.328-4.1847 53.136 12.55 43.059 52.256 55.161 60.647 31.53 64.142 1.6704 36.07-21.08-38.356-187.51-33.453-81.044-35.944-18.131-57.247 15.717-31.178 32.499-11.215 28.042z" fill="url(#linearGradient60401)"/>
 <path d="m536.57 687.99c14.466 46.245 19.134 154.95-43.096 204.01l87.96-31.274 25.214-26.457 11.409-166.85-43.107 16.811z" fill="url(#linearGradient76143)"/>
 <path d="m387.82 528.27c-1.9748 5.0107-5.3455 9.6299-6.097 14.963-1.7452 12.385 0.7916 25.219 4.0048 37.306 2.6977 10.148 7.024 19.981 12.635 28.857 8.8588 14.013 20.262 26.487 32.599 37.56 12.199 10.948 25.736 20.706 40.393 28.043 12.342 6.1783 25.885 9.7781 39.286 13.079 10.668 2.6276 21.552 4.8589 32.53 5.3046 9.9235 0.40289 19.999-0.25974 29.699-2.3957 4.7917-1.0552 9.5191-2.7128 13.812-5.089 7.0115-3.8811 16.415-7.1259 19.021-14.704 1.0673-3.1032 0.65628-8.444-2.4375-9.5382-6.285-2.2229-10.133 8.8516-16.033 11.955-6.069 3.1922-12.687 5.667-19.477 6.6221-12.793 1.7994-25.957 0.17844-38.713-1.8698-14.001-2.2481-28.086-5.4908-40.998-11.353-15.535-7.0536-28.982-18.07-42.748-28.147-5.449-3.9889-11.051-7.8963-15.734-12.763-9.1938-9.5555-17.103-20.423-23.85-31.838-4.5537-7.7032-7.9927-16.055-11.065-24.459-1.5626-4.2752-3.1596-8.6217-3.7214-13.139-0.57631-4.6334 0.66627-9.3402 0.39941-14.002-0.32965-5.7584 3.2685-16.491-2.4641-17.127-0.96945-0.10757-0.68389 1.8271-1.0415 2.7346z" fill="#294974"/>
 <ellipse cx="445.79" cy="469.19" rx="43.793" ry="54.906" fill="#faa268" stroke-dashoffset="377.95" stroke-linecap="round" stroke-linejoin="round" stroke-width="7.5591" style="paint-order:markers fill stroke"/>
 <path d="m308.43 898.96s-74.387 50.921-53.915 73.392c9.3659 10.28 22.855-13.759 22.855-13.759s-11.934 30.796 5.3924 36.954c12.499 4.4422 23.974-28.068 23.974-28.068s-8.2348 33.418 10.658 38.26c19.142 4.9063 23.776-33.042 23.776-33.042s-0.56127 31.827 16.735 30.56c16.889-1.2371 14.781-31.385 14.781-31.385s4.9452 27.68 22.039 20.639c13.772-5.672 9.6017-69.907 9.6017-69.907z" fill="url(#linearGradient1658)"/>
 <path d="m407.28 923.42c2.7607-1.3619 7.4232 0.0174 8.8114 2.765 0.98355 1.9467-1.8589 4.0233-2.1268 6.1878-0.8952 7.2338 0.99428 14.55 1.8522 21.788 3.5205 29.702 8.2482 59.263 13.511 88.706 3.4313 19.197 6.7604 38.461 11.772 57.307 6.7215 25.276 31.526 49.364 24.474 74.55-0.7431 2.6541-4.008 3.8191-6.2833 5.3745-14.851 10.152-29.588 25.24-47.576 25.477-3.6459 0.048-6.7941-2.8093-9.776-4.9077-5.3772-3.784-14.282-13.606-14.282-13.606s3.6696 13.089 0.56524 18.371c-0.86149 1.4657-2.9468 1.7245-4.5304 2.343-15.672 6.1209-32.435 8.9589-48.68 13.337-51.152 13.786-100.8 36.734-153.63 40.719-6.3966 0.4825-19.131-2.0844-19.131-2.0844s-8.2528-18.446-8.9597-28.322c-0.4307-6.018-2.7432-15.85 2.9461-17.859 4.8494-1.7119 9.2489 5.654 11.511 10.272 2.6944 5.5008-3.7424 14.801 1.2623 18.332 8.9052 6.2842 20.656-7.601 31.487-8.8161 4.8653-0.5458 9.8447 1.5598 14.669 0.7278 4.787-0.8255 8.7242-4.5307 13.473-5.5553 9.6612-2.0846 19.892 0.6663 29.633-1.006 26.665-4.5777 50.759-19.703 77.393-24.459 14.467-2.5829 33.895 8.5513 44.038-2.0827 2.5729-2.6975-0.59107-7.5028 0-11.183 0.37134-2.3124 1.4369-4.4585 2.1999-6.6728 1.3081-3.7965 0.95456-8.8103 4.0763-11.336 2.5223-2.0407 6.6216-2.4863 9.645-1.3091 5.2911 2.0602 6.3819 9.6443 10.886 13.102 3.3519 2.5735 7.2878 5.3849 11.513 5.3081 11.98-0.2178 28.127-4.9141 32.076-16.227 3.9047-11.187-10.816-21.156-14.844-32.299-8.0542-22.278-13.366-45.493-18.477-68.625-4.6244-20.932-8.1087-42.121-10.999-63.361-2.3961-17.611-5.423-35.288-5.2477-53.061 0.0659-6.681 0.8151-13.405 2.3658-19.904 0.98779-4.1396 0.56328-10.11 4.38-11.993z" fill="#294974"/>
 <path d="m352.08 697.01c-11.356 64.182-44.816 140.61-108.58 199.36l30.392-125.04 27.123-56.56z" fill="url(#linearGradient72940)"/>
 <path d="m259.86 922.53c-2.4365 8.7621-10.811 14.747-14.804 22.918-10.285 21.044-16.165 43.989-23.146 66.348-8.4569 27.088-14.372 54.921-22.673 82.057-14.5 47.401-33.139 93.48-47.366 140.96-4.7672 15.911-12.716 48.179-12.716 48.179s-5.3761 5.2293-8.3126 4.215c-2.5344-0.8754-3.0902-4.6269-3.3997-7.2903-0.26488-2.2798 1.4017-6.7411 1.4017-6.7411s-11.199-0.7649-15.919-3.4496c-9.6935-5.5145-16.568-15.237-22.799-24.486-5.4707-8.1198-9.4432-17.292-12.405-26.624-1.6595-5.2281-3.577-10.747-2.9247-16.194 2.3979-20.022 16.785-36.682 24.506-55.31 5.7647-13.909 10.089-28.408 16.281-42.132 20.877-46.266 45.04-91.044 70.185-135.14 13.663-23.959 32.311-45.128 43.777-70.212 10.937-23.927 15.673-50.228 23.32-75.401 5.5354-18.221 10.868-36.504 16.331-54.747 1.3271-4.4317 3.9952-13.291 3.9952-13.291l6.5702-4.1302 11.049-22.418 12.026-25.862 6.3801 4.6035-15.36 30.841-8.0728 23.679s-10.09 21.935-13.474 33.479c-3.8886 13.264-4.8247 27.226-7.7391 40.737-1.6951 7.8584-3.4466 15.716-5.6662 23.442-2.378 8.2785-5.0328 16.494-8.1845 24.51-3.1073 7.9029-6.7722 15.583-10.549 23.189-12.509 25.191-26.934 49.386-40.073 74.254-17.168 32.493-34.561 64.887-50.645 97.93-7.9592 16.351-22.68 49.618-22.68 49.618s-15.372 34.692-22.832 52.136c-3.1268 7.3124-7.6367 14.218-9.1892 22.018-0.89506 4.4967-1.2296 9.3472 0.03325 13.755 0.7807 2.7247 3.351 4.6263 4.4855 7.2236 0.57754 1.3222 0.44515 2.9129 1.1461 4.174 1.2779 2.2993 2.9979 4.6335 5.3593 5.7927 2.4134 1.1848 5.7742-0.744 8.0341 0.7125 6.014 3.8759 11.302 16.423 11.302 16.423l7.6911 2.6391s2.6158-6.4323 3.2221-9.8253c0.70701-3.9566-0.42734-8.1258 0.44315-12.05 2.1638-9.7539 8.3251-18.194 11.668-27.609 2.0012-5.636 3.8607-11.36 5.002-17.231 0.34565-1.7782 0.17294-3.6347 0.55041-5.4064 7.9424-37.278 25.021-72.037 35.793-108.6 9.0747-30.8 18.959-58.641 28.282-88.098 2.9045-9.1769 6.4165-21.306 11.42-29.529 3.7761-6.2058 6.7801-12.901 11.004-18.811 4.248-5.9435 8.31-12.435 14.316-16.595 1.5336-1.0623 3.7059-2.9762 5.2524-1.9328 0.90482 0.6105 0.39417 2.2214 0.10175 3.273z" fill="#294974"/>
 <path d="m354.1 691.99-9.3317 31.484-30.658 5.7609-7.5922-25.521-39.299 29.884-35.411-3.7602 4.7649-21.786-29.869 10.676-73.79-52.182-74.692-103.81-28.455-133.4 18.367-138.2 61.044-114.74 17.617-12.935-3.3321-19.016 40.218-37.82 9.4727 31.531 5.4995-46.222 21.833-23.178 22.058 14.436 3.3452 40.549 12.583-57.751 38.074-24.901 10.726 4.6401-0.70547 40.609 35.096-62.801 20.792-4.7929 8.1033 33.066-6.8977 28.556-29.651 44.035-46.35 153.8-1.3606 77.869 24.136 112.36 38.661 56.858 45.826 27.224z" fill="#e4e4e4"/>
 <path d="m406.53 493.57c-1.1847 1.9673-5.0463-0.34104-6.7926 1.1503-9.7784 8.3509-7.9134 24.476-12.315 36.559-2.7912 7.6617-2.3296 17.989-8.9329 22.774-2.5602 1.8549-6.3364 0.96617-9.4691 0.54025-6.7725-0.92079-13.402-3.3433-19.416-6.5911-10.039-5.4218-18.527-13.402-26.976-21.07-8.3984-7.6218-17.274-15.143-23.439-24.663-5.6742-8.7614-8.5552-19.079-11.89-28.97-5.0706-15.04-8.7159-30.539-12.282-46.005-3.5139-15.242-6.5629-30.604-8.9676-46.06-2.5949-16.678-5.2188-33.427-5.8814-50.293-0.61045-15.538-0.11562-31.18 1.7666-46.615 1.9005-15.585 6.0196-30.826 9.5795-46.118 5.3782-23.103 11.064-46.155 17.787-68.903 4.7901-16.205 9.1491-32.663 16.052-48.088 4.2582-9.5156 9.2322-18.838 15.523-27.151 4.965-6.5612 17.293-17.614 17.293-17.614l6.886-16.59s1.125-16.341-0.27013-24.331c-0.73603-4.2153-4.216-12.125-4.216-12.125l-11.889 1.7566s-5.9387 5.4998-8.152 8.8423c-4.0423 6.1048-5.6081 13.552-9.0555 20.012-3.0999 5.8082-6.9748 11.169-10.417 16.781-2.7861 4.5421-6.778 8.5599-8.2851 13.671-0.57759 1.9587 1.0297 4.4753-0.17549 6.1238-1.8547 2.5368-6.0155 4.3686-8.8976 3.116-3.2073-1.3939-3.5083-6.1813-4.2202-9.6052-2.6232-12.617 0.15482-38.661 0.15482-38.661s-25.917 11.248-33.267 22.418c-4.4227 6.7213-2.8629 15.836-4.4678 23.721-1.3874 6.8159-2.2207 13.8-4.4613 20.384-2.0613 6.0579-2.3659 14.703-8.1852 17.364-2.2137 1.0124-5.136-0.44-7.0332-1.9651-2.2579-14.505-0.82674-30.607-6.2199-40.115-3.2053-5.1292-9.9144-9.8378-15.872-8.7935-5.6042 0.98244-6.6684 9.4524-11.227 12.858-2.185 1.6322-5.8156 1.2187-7.4366 3.412-6.7563 9.1417-1.7869 22.765-4.4985 33.804-1.0124 4.1215-0.38868 10.463-4.3591 11.963-2.2232 0.83958-4.9501-1.4298-6.2594-3.413-4.6614-7.0609-5.664-23.32-5.664-23.32s-28.161 19.265-33.984 35.529c-1.962 5.4802 3.1922 9.0869 1.3952 14.623-0.97094 2.9914-4.7236 4.2194-6.5956 6.7466-6.0976 8.2314-9.9875 17.891-14.762 26.954-10.043 19.065-20.805 37.83-29.198 57.676-8.6366 20.421-15.675 41.543-21.654 62.894-4.3229 15.435-8.5691 31.042-10.239 46.983-2.9549 28.214-1.3661 56.796 0.4989 85.103 1.4507 22.018 2.6014 44.358 8.3006 65.676 4.5109 16.873 12.291 32.778 20.247 48.326 10.128 19.792 21.377 39.181 34.819 56.891 11.579 15.255 25.073 29.064 39.135 42.066 11.099 10.264 23.165 19.486 35.516 28.203 8.6396 6.0968 16.463 15.17 26.912 16.795 8.4083 1.3081 16.508-8.4582 24.739-6.298 2.5966 0.68151 4.9279 3.0326 5.8228 5.5636 1.8823 5.3236-2.1699 16.8-2.1699 16.8s25.937 2.6156 37.448-2.2707c10.698-4.5409 14.655-19.932 25.693-23.568 2.3266-0.76627 5.343-0.68621 7.3074 0.77718 7.0831 5.2767 2.1584 20.849 10.226 24.445 5.8559 2.6098 13.583-1.8514 18.157-6.3431 8.5476-8.3928 6.0776-18.691 12.74-28.618 1.4868-2.2152 6.1284-5.898 7.6086-3.6784-6.2987 10.353-5.7022 20.502-10.756 33.552-1.2447 3.214-3.9499 8.3155-7.2984 9.1321-5.38 1.3121-16.565 1.2555-16.565 1.2555s-2.4108 4.1929-4.5241 4.6384c-3.6349 0.76636-7.9538-1.3102-10.34-4.1574-4.3808-5.2272-4.1961-20.026-4.1961-20.026s-16.615 10.166-22.678 17.558c-1.6626 2.027-1.5415 5.3037-3.505 7.0408-3.988 3.5283-9.7846 4.6081-15.061 5.3232-7.8565 1.0647-16.103 0.50714-23.726-1.6717-4.3378-1.2398-11.964-6.3273-11.964-6.3273l3.8161-18.583s-14.237 10.563-22.445 10.188c-21.178-0.96837-37.526-19.865-55.273-31.463-13.731-8.9741-27.824-17.842-39.465-29.399-12.062-11.974-21.235-26.588-30.757-40.667-11.244-16.625-21.9-33.723-31.051-51.586-6.1385-11.982-12.05-24.226-15.915-37.122-3.7124-12.385-5.1372-25.364-6.8457-38.18-2.9518-22.142-4.8363-44.442-5.866-66.757-0.84354-18.279-1.6704-36.652-0.25153-54.896 1.5018-19.31 4.734-38.53 9.2467-57.365 4.626-19.308 10.662-38.347 18.199-56.716 7.2834-17.752 15.801-35.103 25.977-51.371 8.5641-13.692 17.676-27.376 29.31-38.577 2.8522-2.746 9.7235-6.8219 9.7235-6.8219s-5.9404-1.0545-6.0868-3.3688c-0.0519-0.82055 1.186-1.2864 1.9904-1.4568 3.3919-0.71854 10.163 2.2123 10.163 2.2123s-3.8426-10.644-2.6445-15.872c2.1589-9.4209 9.9961-16.752 16.744-23.672 7.2004-7.3834 14.67-16.573 24.803-18.495 2.2127-0.41979 6.5193 1.7745 6.5193 1.7745l3.7146 18.781s-0.23368-22.295 3.7783-32.402c3.7038-9.3303 9.3094-19.098 17.978-24.161 4.3818-2.5595 10.185-3.1672 15.103-1.9162 5.35 1.361 9.8305 5.5019 13.436 9.682 1.8188 2.1084 3.8364 7.4203 3.8364 7.4203l1.9616 23.306 3.9617-39.447s23.894-22.719 39.131-27.226c4.6727-1.382 10.063-1.2708 14.61 0.47872 2.4259 0.93321 4.9202 2.6494 5.9552 5.0336 3.7989 8.7509-1.4284 28.584-1.4284 28.584s8.2031-28.738 17.528-39.861c1.7171-2.0482 5.281-2.1719 6.6641-4.459 0.83494-1.3807-0.49992-3.559 0.51543-4.813 5.4368-6.7145 16.067-9.1761 24.634-8.0601 4.3589 0.56781 8.5666 3.5578 11.065 7.1748 4.5207 6.5461 5.0512 23.326 5.0512 23.326s4.9712 1.8518 5.4998 4.0705c1.5356 6.4461-8.9311 17.76-8.9311 17.76s2.4388 5.737 1.7971 8.5916c-2.745 12.213-22.678 29.931-22.678 29.931s-12.728 24.437-17.582 37.296c-16.121 42.704-28.043 87.01-38.028 131.55-1.9977 8.9113-3.9071 17.928-4.3556 27.049-0.9687 19.699 1.6173 39.437 3.6298 59.057 1.3985 13.634 3.5904 27.18 5.8614 40.696 2.3545 14.013 3.8138 28.298 8.0461 41.862 3.4543 11.071 9.3443 21.229 14.028 31.839 2.643 5.9878 4.518 12.38 7.9416 17.958 4.3379 7.068 9.7386 13.542 15.732 19.274 7.6598 7.3265 17.162 12.453 25.504 18.992 4.808 3.7684 8.0646 12.292 14.14 11.658 1.4544-0.15177 2.1356-2.0959 2.7359-3.4293 3.0748-6.8306 1.2035-15.134 3.8588-22.139 2.3375-6.166 6.3182-11.645 10.376-16.843 2.6914-3.4469 5.5795-6.8851 9.1678-9.3848 3.4766-2.4219 7.7316-6.8932 11.607-5.181 2.6834 1.1855 4.2734 5.8438 2.76 8.3569z" fill="#294974"/>
 <path d="m614.99 692.56-30.843-170.92 44.644-42.34 31.522-73.679 22.33-85.015-5.7206-88.401-17.185-78.534-30.615-65.615-45.84-51.294 11.758-14.639 35.936 31.85-0.5783-6.6442-5.527-19.805 14.032-1.5618 28.151 12.342 13.803 30.749 10.34-30.84 29.069 9.8401 14.836 37.321 10.564-11.867 19.63 7.8556 41.333 72.573 32.96 81.076 23.901 153.2-29.332 108.4-58.545 100.84-25.754 20.853-52.562 5.6841 4.1116 7.6548 14.637 11.567-27.174 20.294-42.321-8.8169 14.022 28.783z" fill="url(#linearGradient64427)"/>
 <ellipse cx="658.73" cy="847.74" rx="17.112" ry="9.6637" fill="#f7b8d5" style="paint-order:markers fill stroke"/>
 <ellipse cx="493.18" cy="962.89" rx="14.59" ry="10.23" fill="#f7b8d5" style="paint-order:markers fill stroke"/>
 <ellipse cx="487.13" cy="952.84" rx="10.861" ry="8.3116" fill="#f0a297" style="paint-order:markers fill stroke"/>
 <ellipse cx="478.88" cy="944.58" rx="10.164" ry="7.3633" fill="#f7b8d5" style="paint-order:markers fill stroke"/>
 <ellipse transform="matrix(-.18036 .9836 -.79455 -.6072 0 0)" cx="550.3" cy="-741.44" rx="9.183" ry="6.4498" fill="#f7b8d5" style="paint-order:markers fill stroke"/>
 <ellipse transform="rotate(-23.837)" cx="65.52" cy="1141.3" rx="9.5917" ry="12.37" fill="#f7b8d5" style="paint-order:markers fill stroke"/>
 <ellipse transform="rotate(-45.066)" cx="-314" cy="1089.5" rx="9.5917" ry="12.37" fill="#f7b8d5" style="paint-order:markers fill stroke"/>
 <ellipse cx="490.3" cy="1022.4" rx="9.5917" ry="12.37" fill="#f7b8d5" style="paint-order:markers fill stroke"/>
 <ellipse transform="matrix(.77525 .63166 -.91474 .40404 0 0)" cx="1239.7" cy="478.53" rx="9.183" ry="6.4498" fill="#f7b8d5" style="paint-order:markers fill stroke"/>
 <ellipse cx="490.55" cy="1052" rx="9.5917" ry="12.37" fill="#f7b8d5" style="paint-order:markers fill stroke"/>
 <ellipse transform="matrix(.79099 -.61183 .44984 .89311 0 0)" cx="4.4755" cy="1188" rx="12.413" ry="17.57" fill="#f7b8d5" style="paint-order:markers fill stroke"/>
 <ellipse transform="matrix(.57631 -.81723 .69239 .72153 0 0)" cx="-296.63" cy="1077.9" rx="12.413" ry="17.57" fill="#f7b8d5" style="paint-order:markers fill stroke"/>
 <ellipse cx="618.77" cy="850.32" rx="9.7817" ry="11.005" fill="#f7b8d5" style="paint-order:markers fill stroke"/>
 <ellipse transform="matrix(.11885 .99291 -.99915 -.041201 0 0)" cx="856.92" cy="-548.69" rx="12.887" ry="9.9684" fill="#f7b8d5" style="paint-order:markers fill stroke"/>
 <ellipse transform="matrix(.10112 .99487 -.99882 -.048502 0 0)" cx="884.18" cy="-569.82" rx="16.719" ry="11.008" fill="#f7b8d5" style="paint-order:markers fill stroke"/>
 <ellipse transform="matrix(.68695 .7267 -.87756 .47946 0 0)" cx="1185.3" cy="52.113" rx="16.635" ry="11.346" fill="#f7b8d5" style="paint-order:markers fill stroke"/>
 <path d="m303.22 876.78c0.92005 6.08 2.1658 15.126 6.2967 21.384 5.1787 7.8457 13.205 12.873 21.548 17.205 14.064 7.3027 29.339 13.117 45.051 15.181 9.715 1.2762 19.571-2.6829 29.336-1.8739 8.359 0.69255 16.559 3.0305 24.505 5.7149 5.712 1.9296 11.641 3.8426 16.497 7.4154 6.123 4.5046 11.444 10.419 15.117 17.074 6.1058 11.063 8.1993 23.989 10.62 36.391 4.4523 22.813-2.6922 48.277 7.0684 69.372 1.4504 3.1347 4.1446 5.8206 7.1774 7.4736 3.871 2.1099 8.7325 3.7048 12.982 2.5299 2.5162-0.6958 4.8357-2.8188 5.8255-5.2345 2.5455-6.2125-1.2288-20.104-1.2288-20.104l13.392 0.1466s4.0618 17.459 9.5338 24.173c2.1294 2.6128 5.299 4.3744 8.4646 5.5318 4.7088 1.7216 10.201 3.5029 14.929 1.8335 4.2687-1.5074 8.009-5.4619 9.4511-9.7531 0.99541-2.962-0.28759-6.2975-1.134-9.3055-5.5634-19.772-16.503-37.632-25.536-56.078-2.0205-4.1261-6.4064-12.203-6.4064-12.203l2.3388-0.34546s17.373 14.451 24.974 22.763c4.3036 4.7061 7.0347 10.755 11.575 15.232 3.5686 3.5191 7.2707 7.5784 12.097 8.9293 3.1376 0.8782 7.0395 0.9514 9.7351-0.8789 3.5101-2.3833 5.1913-7.1534 5.7402-11.36 0.59253-4.5409-1.2357-9.1526-2.8418-13.441-2.1522-5.7468-5.2037-11.23-8.9603-16.082-8.211-10.606-18.393-19.72-29.124-27.767-15.637-11.725-34.804-18.071-50.731-29.399-2.7115-1.9283-6.1257-3.514-7.5623-6.5151-3.0703-6.4139-2.9362-14.568-0.70934-21.321 1.9262-5.8414 6.4917-10.838 11.463-14.46 13.318-9.7026 31.286-10.536 46.287-17.356 8.5314-3.879 15.648-11.092 24.745-13.349 6.7097-1.6647 13.849 0.74326 20.739 0.17298 5.6206-0.46524 11.033-2.6307 16.665-2.921 4.6098-0.23765 9.8514-1.3932 13.813 0.97539 4.0745 2.436 5.6918 7.6957 7.6083 12.039 3.5685 8.0867 4.4802 17.104 7.0104 25.574 2.3784 7.9609 3.1587 16.741 7.6771 23.714 2.3717 3.6599 5.6325 7.2295 9.7151 8.7633 3.1256 1.1742 6.926 1.114 10.015-0.1523 3.0178-1.237 5.3287-4.0048 7.073-6.7606 1.5207-2.4025 2.6121-5.253 2.6884-8.0954 0.14709-5.4786-3.0428-10.534-4.3372-15.859-1.3563-5.58-2.8228-11.158-3.5899-16.849-0.58112-4.3116-1.3476-8.7195-0.75695-13.03 0.36028-2.6291 0.42329-5.9882 2.5828-7.5305 1.6324-1.1658 4.0214 0.19454 6.0179 0 3.2861-0.3202 6.5598-2.8728 9.7186-1.9122 13.502 4.1059 18.131 22.216 29.957 29.916 3.5291 2.2978 8.1748 2.388 11.781 4.5635 2.1175 1.2775 4.0832 3.0923 6.5376 3.3956 3.7677 0.46566 5.4382-4.0967 9.2122-3.6853 3.7125 0.40476 5.2996 4.5041 8.9945 5.0464 2.9158 0.42795 4.877-1.2316 7.8219-1.3474 4.4971-0.17675 8.3376 4.526 12.827 4.2135 5.0035-0.34819 10.625-2.5258 13.507-6.6305 2.3952-3.4111 2.181-8.34 1.3715-12.429-1.2483-6.3052-5.0537-12.053-9.2584-16.915-7.1442-8.2604-16.786-14.126-26.172-19.71-11.345-6.7488-23.392-12.625-36.033-16.43-13.693-4.122-28.072-6.7692-42.372-6.7076-9.5504 0.0412-18.75 3.8381-28.259 4.7236-13.101 1.2199-39.464 0.79247-39.464 0.79247s6.8433-10.686 9.0479-16.586c2.4103-6.4494 3.4252-13.364 4.4249-20.176 1.4464-9.8566 1.8995-19.845 2.2548-29.801 0.88242-24.729 1.6268-49.565-0.31039-74.234-1.7568-22.372-6.2207-44.461-10.23-66.541-3.8324-21.104-8.5426-42.042-13.208-62.977-3.75-16.829-7.0524-33.791-11.881-50.343-1.8499-6.3409-9.538-40.302-16.139-40.074-7.8774 0.27213 1.8516 34.023 3.3704 44.175 2.7694 18.511 6.3223 36.897 9.642 55.318 4.3181 23.96 9.2206 47.815 13.366 71.806 2.5556 14.789 5.7161 29.517 7.0926 44.462 1.7325 18.809 2.0811 37.77 1.4455 56.648-0.72978 21.676-5.4614 43.105-6.0308 64.786-0.18582 7.0764 1.7023 14.191 0.85586 21.219-0.46349 3.8484-4.1478 7.4135-3.214 11.176 0.46064 1.8557 2.1817 3.4797 3.9793 4.1312 12.511 4.5347 26.38-4.1776 39.686-4.3295 10.063-0.11494 20.071 1.5304 30.079 2.5878 8.3675 0.88412 16.647 2.6464 25.046 3.1401 6.2754 0.36882 12.748-1.6152 18.858-0.13784 9.7587 2.3596 17.96 8.9992 26.691 13.956 9.5566 5.4262 19.894 9.9386 28.089 17.261 3.0776 2.7499 5.6918 6.1088 7.624 9.7556 1.1932 2.2521 3.6442 5.089 2.3406 7.279-0.79435 1.3345-3.0633 1.2002-4.5788 0.8608-2.9476-0.66022-5.28-3.1048-7.3408-5.3133-1.8292-1.9603-2.2994-4.9913-4.2545-6.8261-2.7275-2.5596-6.4725-3.7773-9.8803-5.3192-3.1028-1.4039-6.7322-1.6874-9.5766-3.5604-2.4834-1.6352-3.2416-7.0267-6.1591-6.4526-2.9302 0.57654-3.8015 5.4026-3.2695 8.3411 0.53043 2.9302 5.2202 3.7645 5.969 6.6467 0.69137 2.661-0.22753 5.8068-1.8268 8.0431-1.0864 1.5192-2.91 2.7642-4.7693 2.9407-3.4708 0.32951-6.821-1.8672-9.7769-3.716-3.0583-1.9129-5.3705-4.8256-7.8836-7.4134-4.6067-4.7438-8.2824-10.379-13.16-14.844-4.0947-3.7481-8.3046-7.6733-13.387-9.9053-4.2662-1.8735-9.1221-1.9256-13.725-2.6478-2.927-0.45927-6.0144-2.0109-8.8239-1.0702-3.0894 1.0344-5.2813 4.0382-7.038 6.782-1.7765 2.7747-2.5921 6.1062-3.25 9.3345-1.1201 5.497-1.7098 11.213-1.1267 16.792 0.73511 7.0342 4.2111 13.52 5.7666 20.419 0.64459 2.8589 1.8838 5.7662 1.4724 8.6679-0.21335 1.505-0.52713 3.6697-1.9831 4.1063-2.324 0.69685-4.4905-2.0602-6.2495-3.7312-1.814-1.7234-3.0875-3.9851-4.1732-6.2395-1.7647-3.6643-2.7194-7.6796-3.7002-11.627-1.5181-6.1089-1.5333-12.559-3.3628-18.582-1.8306-6.0267-4.0244-12.101-7.5453-17.324-2.2719-3.3698-4.8147-7.0731-8.5366-8.7053-4.7617-2.0882-10.393-0.61739-15.591-0.48958-9.1897 0.22596-18.296 2.0956-27.488 2.2192-4.0125 0.054-8.6944-2.8896-12.021-0.64568-23.711 15.993-43.223 22.307-75.593 27.463-10.291 1.6392-12.929 16.925-15.917 26.908-2.5092 8.3833-4.9852 18.311-1.2459 26.223 1.8888 3.9962 7.3136 5.0042 10.634 7.922 3.7272 3.2754 6.4696 7.607 10.353 10.695 5.9294 4.7154 12.909 7.9372 19.47 11.725 6.6472 3.8371 13.597 7.1462 20.151 11.14 4.3941 2.6778 9.0533 5.0894 12.831 8.5834 5.65 5.2259 9.6412 12.002 14.293 18.133 4.3199 5.6932 11.858 10.212 12.642 17.316 0.13422 1.2164-0.2718 3.0995-1.4662 3.3657-1.7531 0.3907-2.7352-2.3307-4.0462-3.5585-3.3194-3.1089-6.5358-6.3301-9.6616-9.6336-2.6527-2.8035-5.1183-5.7784-7.71-8.6383-3.2053-3.5371-6.1094-7.3882-9.6959-10.538-3.8728-3.4016-8.3569-6.0399-12.636-8.9143-2.6108-1.7539-5.0177-3.9451-7.9506-5.0812-3.0036-1.1635-6.333-2.085-9.523-1.6393-1.4632 0.20445-3.142 0.71388-3.9947 1.9204-1.8589 2.6302-1.4986 6.4183-1.0398 9.6062 0.80274 5.5783 4.2058 10.46 6.4853 15.614 3.8231 8.6445 8.2107 17.031 12.056 25.666 3.1763 7.1332 6.1259 14.366 9.0946 21.588 1.3414 3.2633 3.4146 6.3354 3.9388 9.8245 0.36113 2.404 1.2791 5.7318-0.60516 7.2677-1.2409 1.0115-3.3508 0.1694-4.7685-0.5745-2.8051-1.4718-4.5446-4.4788-6.2969-7.1178-3.944-5.9398-6.6606-12.642-9.266-19.279-3.0697-7.8199-4.5601-16.188-7.4502-24.076-2.567-7.0062-4.6845-14.35-8.7644-20.598-1.2878-1.972-2.7391-4.0838-4.8406-5.147-1.8432-0.93254-4.3364-1.7317-6.1518-0.74627-2.595 1.4086-3.234 5.0776-3.8965 7.9549-0.73509 3.1928-0.0223 6.553 0.0284 9.8289 0.1639 10.587 0.99963 21.165 0.89153 31.753-0.0619 6.0597 4.7517 15.924-0.88118 18.159-3.2399 1.2854-6.0405-4.1045-7.5292-7.2561-4.3886-9.2906-3.4692-20.508-2.4241-30.73 0.46564-4.5539 3.2523-8.6473 3.8283-13.189 0.52649-4.1507 0.37756-8.4311-0.37866-12.546-1.7392-9.4643-6.2765-18.193-9.4449-27.28-2.5302-7.2559-3.7157-15.143-7.6389-21.751-2.7952-4.7078-6.9866-8.4739-11.001-12.197-5.6866-5.2743-11.784-10.194-18.4-14.242-7.7543-4.7437-15.8-9.6609-24.681-11.599-4.4557-0.97255-9.1613-0.47717-13.681 0.1306-3.5911 0.48287-6.8879 2.7342-10.511 2.7712-11.555 0.11817-22.721-4.5276-33.694-8.1501-11.037-3.6438-21.882-8.0733-32.111-13.592-6.1077-3.2953-11.491-7.786-17.31-11.568-1.8873-1.2267-6.0453-5.8332-5.7085-3.6076z" fill="#294974"/>
 <path d="m505.99 1026.3 1.828 11.23" fill="none" stroke="#7d3d35" stroke-linecap="round" stroke-width="9.5"/>
 <path d="m619.27 696.26s40.681 3.0377 48.169-10.716c4.2008-7.7157-14.863-20.679-6.3312-22.773 5.4562-1.3396 25.715 12.492 39.264 7.481 11.565-4.2771 24.698-17.47 22.247-29.554-1.5733-7.7568-19.961-5.4196-18.416-13.182 16.726-6.964 36.854 0.91272 52.957-8.3277 26.587-15.255 41.115-43.866 56.597-70.322 23.499-40.155 46.119-82.84 54.065-128.68 9.1288-52.672 4.0879-108.91-11.211-160.13-18.513-61.982-46.865-121.53-84.648-174.1-6.4235-8.9388-18.753-20.071-29.391-17.245-5.6984 1.5138-1.9779 9.207-7.8652 8.8872-3.3521-6.5189-2.2484-22.055-13.942-31.947-7.36-6.2263-15.235-8.9247-26.967-11.158-10.324-1.9654-11.339 17.27-13.481 28.108-5.4797-10.487-1.3081-18.998-12.655-27.138-11.225-8.0528-32.647-16.232-44.36-8.9096-3.9186 2.4497 2.753 15.737 5.3239 22.204-18.415-5.7144-19.775-34.661-36.53-31.892-8.9816 1.4843-20.745 19.542-12.861 24.092 45.19 26.084 74.609 105.48 84.606 167.1 11.408 70.326 10.549 144.42-16.813 208.59-15.96 37.425-39.264 78.024-64.931 95.74 0.31686 6.5631 3.71 18.602 4.4048 21.326 35.163-13.372 64.197-74.125 79.283-114.34 26.071-69.496 30.062-140.52 14.478-213.09-13.17-61.332-43.564-131.49-88.934-167.91-0.3087-4.4166 1.3504-8.3385 3.2872-9.6069 12.6 5.0105 26.887 26.485 35.173 26.91 2.5844 0.13236 3.7239-2.3417 3.8144-5.1553 0.24663-7.6671-7.8284-20.404-2.7264-22.346 9.1586-3.4854 19.779 2.3991 27.534 8.3906 10.233 7.9071 11.905 29.814 21.307 34.368 1.8551 0.89874 4.0821-0.61862 6.1844-3.3625 6.0909-7.9499 4.5728-19.19 7.6974-23.361 4.843-6.4657 19.813 2.9593 23.67 10.058 5.8985 10.856 8.3477 21.225 13.653 32.386 1.1044 2.3232 4.2001 2.5043 7.38 0.99326 4.2586-2.0236 3.307-8.51 7.8391-9.8104 7.898-2.2662 16.952 5.9006 20.865 13.126 29.121 53.768 56.877 110.55 70.411 170.68 11.519 51.176 17.002 104.51 8.4396 156.26-7.2398 43.761-25.95 85.464-47.099 124.45-13.182 24.303-24.481 51.591-48.32 65.593-16.761 9.845-30.791 2.3179-50.196 9.0463-4.2598 1.477-10.77 5.3374-9.3321 9.6107 2.1621 6.4272 11.971 6.0528 13.357 12.691 1.3692 6.5579-5.5064 13.948-11.787 16.278-14.646 5.4329-30.014-12.034-45.589-10.849-3.44 0.26181-8.311 0.6881-9.59 3.8922-3.7262 9.3347 17.151 16.83 12.565 25.773-5.1216 9.9888-32.511 4.0327-32.511 4.0327z" fill="#294974"/>
 <path d="m416.64 431.4c44.421-24.687 68.86 30.28 44.776 62.037l14.776 13.684 14.782-37.625-7.7576-32.171-16.311-16.781-32.231-6.0998z" fill="url(#linearGradient23179)"/>
 <ellipse cx="429.84" cy="461.32" rx="28.27" ry="33.538" fill="url(#radialGradient17205)" style="paint-order:markers fill stroke"/>
 <path d="m410.94 429.58c15.111-30.13 49.933-55.753 84.656-57.31 15.979-0.71674 32.258 2.9803 44.377 13.42 6.2209 5.3591 12.33 12.97 10.419 20.802-1.404 5.7544-12.459 10.145-15.441 5.0271-9.0494-15.53-24.389-18.639-39.238-19.354-15.845-0.76303-34.631 5.9903-50.648 13.55-12.484 5.8919-34.125 23.864-34.125 23.864z" fill="#294974"/>
 <path d="m403.07 482.97 16.129-2.3699 26.505 2.4975 30.264 24.843-13.099 13.959-24.346 2.8394-21.218-11.802z" fill="#5d7c60"/>
 <ellipse cx="424.7" cy="442.17" rx="6.415" ry="6.9913" fill="#fff" style="paint-order:markers fill stroke"/>
 <path d="m471.59 510.9c-17.265-29.062-34.71-33.986-63.762-33.976" fill="none" stroke="#225553" stroke-dashoffset="377.95" stroke-linecap="round" stroke-linejoin="round" stroke-width="13.606" style="paint-order:markers fill stroke"/>
 <ellipse cx="447.1" cy="468.83" rx="42.239" ry="55.164" fill="none" stroke="url(#linearGradient25095)" stroke-dashoffset="377.95" stroke-linecap="round" stroke-linejoin="round" stroke-width="10.961" style="paint-order:markers fill stroke"/>
 <path d="m527.95 449.15-5.6883 32.02 44.594 25.406 3.2174-35.32 36.517-17.451-46.202-19.489z" fill="url(#linearGradient57727)"/>
 <path d="m527.15 474.72c2.6928 15.424 38.038 23.834 38.038 23.834s0.6399-18.689-0.31075-28.678c2.0839-1.8452 8.5518-0.69688 8.2734 2.0726-1.3558 13.488-1.7363 24.653-4.2224 35.651-4.5483 4.2508-12.59 3.315-18.6 1.6907-11.616-3.1395-23.373-9.0941-28.644-19.911-3.3908-6.959-3.1259-17.312 1.8896-23.089 3.6173 1.098 5.7106 2.8595 5.7106 2.8595s-2.4608 3.7027-2.1348 5.5699z" fill="#294974"/>
 <ellipse transform="matrix(.94962 .31341 -.24833 .96867 0 0)" cx="613.04" cy="252.84" rx="17.637" ry="15.057" fill="#225553" style="paint-order:markers fill stroke"/>
 <ellipse transform="matrix(-.3779 .92585 -.93753 -.34789 0 0)" cx="207.53" cy="-666.39" rx="16.156" ry="13.269" fill="#294974" style="paint-order:markers fill stroke"/>
 <ellipse transform="matrix(.97185 .23558 -.31063 .95053 0 0)" cx="633.39" cy="302.34" rx="12.09" ry="9.1133" fill="#fdd" style="paint-order:markers fill stroke"/>
 <ellipse transform="matrix(-.059306 -.99824 .96566 -.25983 0 0)" cx="-565.64" cy="531.3" rx="9.4742" ry="8.7337" fill="#fdd" style="paint-order:markers fill stroke"/>
 <path d="m525.69 464.04c-4.8037-2.6321-6.1516-12.759-2.9862-17.229 6.3192-8.924 17.061-15.836 27.994-17.431 30.792-4.492 46.173 2.5487 61.545 27.043-12.967 10.93-26.696 15.426-41.569 18.185-14.386 2.6679-36.554 3.1872-47.09-4.4517-2.8567-2.0712-1.3593-12.489 4.7229-10.46 15.182 4.5679 28.408 3.5224 42.343 1.8714 9.9925-1.1838 26.111-10.272 26.111-10.272s-16.816-9.8553-35.061-8.6847c-15.187 0.97444-24.954 9.5782-36.011 21.43z" fill="#294974"/>
 <ellipse transform="matrix(.24269 .9701 -.97456 -.22412 0 0)" cx="953.26" cy="-282.76" rx="9.183" ry="6.4498" fill="#f7b8d5" style="paint-order:markers fill stroke"/>
</svg>
